<svg width="1180" height="520" viewBox="0 0 1180 520" xmlns="http://www.w3.org/2000/svg" font-family="ui-sans-serif,system-ui,sans-serif">
<style>.val{font-size:10px;fill:#444}.bval{font-size:8px;fill:#555}.cat{font-size:11px;fill:#333}.leg{font-size:11px;fill:#333}.ax{font-size:10px;fill:#888}.grid{stroke:#eee}.axis{stroke:#bbb}</style>
<rect width="1180" height="520" fill="#fff"/>
<text x="70" y="26" font-size="15" font-weight="600" fill="#222">compile time: wago vs wazero vs WARP (ns/op, log scale)</text>
<rect x="70.0" y="34" width="10" height="10" fill="#4e79a7" fill-opacity="1.00"/>
<text x="84.0" y="43.0" class="leg" text-anchor="start">wago</text>
<rect x="117.6" y="34" width="10" height="10" fill="#4e79a7" fill-opacity="0.40"/>
<text x="131.6" y="43.0" class="leg" text-anchor="start">wago (validate only)</text>
<rect x="267.6" y="34" width="10" height="10" fill="#e15759" fill-opacity="1.00"/>
<text x="281.6" y="43.0" class="leg" text-anchor="start">wazero</text>
<rect x="328.0" y="34" width="10" height="10" fill="#f28e2b" fill-opacity="1.00"/>
<text x="342.0" y="43.0" class="leg" text-anchor="start">WARP</text>
<line x1="70" y1="424.0" x2="1156" y2="424.0" class="grid"/>
<text x="64" y="427.0" class="ax" text-anchor="end">1µs</text>
<line x1="70" y1="378.6" x2="1156" y2="378.6" class="grid"/>
<text x="64" y="381.6" class="ax" text-anchor="end">10µs</text>
<line x1="70" y1="333.1" x2="1156" y2="333.1" class="grid"/>
<text x="64" y="336.1" class="ax" text-anchor="end">100µs</text>
<line x1="70" y1="287.7" x2="1156" y2="287.7" class="grid"/>
<text x="64" y="290.7" class="ax" text-anchor="end">1ms</text>
<line x1="70" y1="242.3" x2="1156" y2="242.3" class="grid"/>
<text x="64" y="245.3" class="ax" text-anchor="end">10ms</text>
<line x1="70" y1="196.9" x2="1156" y2="196.9" class="grid"/>
<text x="64" y="199.9" class="ax" text-anchor="end">100ms</text>
<line x1="70" y1="151.4" x2="1156" y2="151.4" class="grid"/>
<text x="64" y="154.4" class="ax" text-anchor="end">1s</text>
<line x1="70" y1="106.0" x2="1156" y2="106.0" class="grid"/>
<text x="64" y="109.0" class="ax" text-anchor="end">10s</text>
<rect x="75.4" y="395.4" width="13.0" height="28.6" fill="#4e79a7" fill-opacity="1.00"/>
<text x="81.9" y="392.4" class="bval" text-anchor="start" transform="rotate(-90 81.9 392.4)">4.3µs</text>
<rect x="89.9" y="348.1" width="13.0" height="75.9" fill="#e15759" fill-opacity="1.00"/>
<text x="96.4" y="345.1" class="bval" text-anchor="start" transform="rotate(-90 96.4 345.1)">46.8µs</text>
<rect x="104.4" y="355.0" width="13.0" height="69.0" fill="#f28e2b" fill-opacity="1.00"/>
<text x="110.9" y="352.0" class="bval" text-anchor="start" transform="rotate(-90 110.9 352.0)">33µs</text>
<text x="97.2" y="438.0" class="cat" text-anchor="end" transform="rotate(-35 97.2 438.0)">tiny</text>
<rect x="129.7" y="387.1" width="13.0" height="36.9" fill="#4e79a7" fill-opacity="1.00"/>
<text x="136.2" y="384.1" class="bval" text-anchor="start" transform="rotate(-90 136.2 384.1)">6.5µs</text>
<rect x="144.2" y="348.5" width="13.0" height="75.5" fill="#e15759" fill-opacity="1.00"/>
<text x="150.7" y="345.5" class="bval" text-anchor="start" transform="rotate(-90 150.7 345.5)">45.8µs</text>
<rect x="158.7" y="359.0" width="13.0" height="65.0" fill="#f28e2b" fill-opacity="1.00"/>
<text x="165.2" y="356.0" class="bval" text-anchor="start" transform="rotate(-90 165.2 356.0)">27µs</text>
<text x="151.4" y="438.0" class="cat" text-anchor="end" transform="rotate(-35 151.4 438.0)">fib_rec</text>
<rect x="184.0" y="389.1" width="13.0" height="34.9" fill="#4e79a7" fill-opacity="1.00"/>
<text x="190.5" y="386.1" class="bval" text-anchor="start" transform="rotate(-90 190.5 386.1)">5.9µs</text>
<rect x="198.5" y="348.7" width="13.0" height="75.3" fill="#e15759" fill-opacity="1.00"/>
<text x="205.0" y="345.7" class="bval" text-anchor="start" transform="rotate(-90 205.0 345.7)">45.4µs</text>
<rect x="213.0" y="364.9" width="13.0" height="59.1" fill="#f28e2b" fill-opacity="1.00"/>
<text x="219.5" y="361.9" class="bval" text-anchor="start" transform="rotate(-90 219.5 361.9)">20µs</text>
<text x="205.8" y="438.0" class="cat" text-anchor="end" transform="rotate(-35 205.8 438.0)">branches</text>
<rect x="238.3" y="384.8" width="13.0" height="39.2" fill="#4e79a7" fill-opacity="1.00"/>
<text x="244.8" y="381.8" class="bval" text-anchor="start" transform="rotate(-90 244.8 381.8)">7.3µs</text>
<rect x="252.8" y="348.5" width="13.0" height="75.5" fill="#e15759" fill-opacity="1.00"/>
<text x="259.3" y="345.5" class="bval" text-anchor="start" transform="rotate(-90 259.3 345.5)">45.9µs</text>
<rect x="267.3" y="360.5" width="13.0" height="63.5" fill="#f28e2b" fill-opacity="1.00"/>
<text x="273.8" y="357.5" class="bval" text-anchor="start" transform="rotate(-90 273.8 357.5)">25µs</text>
<text x="260.0" y="438.0" class="cat" text-anchor="end" transform="rotate(-35 260.0 438.0)">fib_iter</text>
<rect x="292.6" y="382.3" width="13.0" height="41.7" fill="#4e79a7" fill-opacity="1.00"/>
<text x="299.1" y="379.3" class="bval" text-anchor="start" transform="rotate(-90 299.1 379.3)">8.3µs</text>
<rect x="307.1" y="348.3" width="13.0" height="75.7" fill="#e15759" fill-opacity="1.00"/>
<text x="313.6" y="345.3" class="bval" text-anchor="start" transform="rotate(-90 313.6 345.3)">46.5µs</text>
<rect x="321.6" y="354.4" width="13.0" height="69.6" fill="#f28e2b" fill-opacity="1.00"/>
<text x="328.1" y="351.4" class="bval" text-anchor="start" transform="rotate(-90 328.1 351.4)">34µs</text>
<text x="314.3" y="438.0" class="cat" text-anchor="end" transform="rotate(-35 314.3 438.0)">arith</text>
<rect x="346.9" y="385.2" width="13.0" height="38.8" fill="#4e79a7" fill-opacity="1.00"/>
<text x="353.4" y="382.2" class="bval" text-anchor="start" transform="rotate(-90 353.4 382.2)">7.2µs</text>
<rect x="361.4" y="348.4" width="13.0" height="75.6" fill="#e15759" fill-opacity="1.00"/>
<text x="367.9" y="345.4" class="bval" text-anchor="start" transform="rotate(-90 367.9 345.4)">46.2µs</text>
<rect x="375.9" y="360.5" width="13.0" height="63.5" fill="#f28e2b" fill-opacity="1.00"/>
<text x="382.4" y="357.5" class="bval" text-anchor="start" transform="rotate(-90 382.4 357.5)">25µs</text>
<text x="368.6" y="438.0" class="cat" text-anchor="end" transform="rotate(-35 368.6 438.0)">float</text>
<rect x="401.2" y="383.1" width="13.0" height="40.9" fill="#4e79a7" fill-opacity="1.00"/>
<text x="407.7" y="380.1" class="bval" text-anchor="start" transform="rotate(-90 407.7 380.1)">7.9µs</text>
<rect x="415.7" y="343.8" width="13.0" height="80.2" fill="#e15759" fill-opacity="1.00"/>
<text x="422.2" y="340.8" class="bval" text-anchor="start" transform="rotate(-90 422.2 340.8)">58.3µs</text>
<rect x="430.2" y="357.6" width="13.0" height="66.4" fill="#f28e2b" fill-opacity="1.00"/>
<text x="436.7" y="354.6" class="bval" text-anchor="start" transform="rotate(-90 436.7 354.6)">29µs</text>
<text x="422.9" y="438.0" class="cat" text-anchor="end" transform="rotate(-35 422.9 438.0)">globals</text>
<rect x="455.5" y="377.8" width="13.0" height="46.2" fill="#4e79a7" fill-opacity="1.00"/>
<text x="462.0" y="374.8" class="bval" text-anchor="start" transform="rotate(-90 462.0 374.8)">10.4µs</text>
<rect x="470.0" y="341.1" width="13.0" height="82.9" fill="#e15759" fill-opacity="1.00"/>
<text x="476.5" y="338.1" class="bval" text-anchor="start" transform="rotate(-90 476.5 338.1)">66.9µs</text>
<rect x="484.5" y="358.3" width="13.0" height="65.7" fill="#f28e2b" fill-opacity="1.00"/>
<text x="491.0" y="355.3" class="bval" text-anchor="start" transform="rotate(-90 491.0 355.3)">28µs</text>
<text x="477.2" y="438.0" class="cat" text-anchor="end" transform="rotate(-35 477.2 438.0)">dispatch</text>
<rect x="509.8" y="373.4" width="13.0" height="50.6" fill="#4e79a7" fill-opacity="1.00"/>
<text x="516.3" y="370.4" class="bval" text-anchor="start" transform="rotate(-90 516.3 370.4)">13µs</text>
<rect x="524.3" y="339.9" width="13.0" height="84.1" fill="#e15759" fill-opacity="1.00"/>
<text x="530.8" y="336.9" class="bval" text-anchor="start" transform="rotate(-90 530.8 336.9)">71.1µs</text>
<rect x="538.8" y="359.0" width="13.0" height="65.0" fill="#f28e2b" fill-opacity="1.00"/>
<text x="545.3" y="356.0" class="bval" text-anchor="start" transform="rotate(-90 545.3 356.0)">27µs</text>
<text x="531.5" y="438.0" class="cat" text-anchor="end" transform="rotate(-35 531.5 438.0)">memory</text>
<rect x="564.1" y="352.4" width="13.0" height="71.6" fill="#4e79a7" fill-opacity="1.00"/>
<text x="570.6" y="349.4" class="bval" text-anchor="start" transform="rotate(-90 570.6 349.4)">37.6µs</text>
<rect x="578.6" y="329.3" width="13.0" height="94.7" fill="#e15759" fill-opacity="1.00"/>
<text x="585.1" y="326.3" class="bval" text-anchor="start" transform="rotate(-90 585.1 326.3)">121.7µs</text>
<rect x="593.1" y="348.9" width="13.0" height="75.1" fill="#f28e2b" fill-opacity="1.00"/>
<text x="599.6" y="345.9" class="bval" text-anchor="start" transform="rotate(-90 599.6 345.9)">45µs</text>
<text x="585.9" y="438.0" class="cat" text-anchor="end" transform="rotate(-35 585.9 438.0)">mandel</text>
<rect x="618.4" y="353.0" width="13.0" height="71.0" fill="#4e79a7" fill-opacity="1.00"/>
<text x="624.9" y="350.0" class="bval" text-anchor="start" transform="rotate(-90 624.9 350.0)">36.5µs</text>
<rect x="632.9" y="333.5" width="13.0" height="90.5" fill="#e15759" fill-opacity="1.00"/>
<text x="639.4" y="330.5" class="bval" text-anchor="start" transform="rotate(-90 639.4 330.5)">98.3µs</text>
<rect x="647.4" y="345.3" width="13.0" height="78.7" fill="#f28e2b" fill-opacity="1.00"/>
<text x="653.9" y="342.3" class="bval" text-anchor="start" transform="rotate(-90 653.9 342.3)">54µs</text>
<text x="640.1" y="438.0" class="cat" text-anchor="end" transform="rotate(-35 640.1 438.0)">hash</text>
<rect x="672.7" y="328.8" width="13.0" height="95.2" fill="#4e79a7" fill-opacity="1.00"/>
<text x="679.2" y="325.8" class="bval" text-anchor="start" transform="rotate(-90 679.2 325.8)">124.8µs</text>
<rect x="687.2" y="310.6" width="13.0" height="113.4" fill="#e15759" fill-opacity="1.00"/>
<text x="693.7" y="307.6" class="bval" text-anchor="start" transform="rotate(-90 693.7 307.6)">312.8µs</text>
<rect x="701.7" y="329.5" width="13.0" height="94.5" fill="#f28e2b" fill-opacity="1.00"/>
<text x="708.2" y="326.5" class="bval" text-anchor="start" transform="rotate(-90 708.2 326.5)">120µs</text>
<text x="694.4" y="438.0" class="cat" text-anchor="end" transform="rotate(-35 694.4 438.0)">geo</text>
<rect x="727.0" y="307.8" width="13.0" height="116.2" fill="#4e79a7" fill-opacity="1.00"/>
<text x="733.5" y="304.8" class="bval" text-anchor="start" transform="rotate(-90 733.5 304.8)">362.1µs</text>
<rect x="741.5" y="287.8" width="13.0" height="136.2" fill="#e15759" fill-opacity="1.00"/>
<text x="748.0" y="284.8" class="bval" text-anchor="start" transform="rotate(-90 748.0 284.8)">996.4µs</text>
<rect x="756.0" y="323.3" width="13.0" height="100.7" fill="#f28e2b" fill-opacity="1.00"/>
<text x="762.5" y="320.3" class="bval" text-anchor="start" transform="rotate(-90 762.5 320.3)">165µs</text>
<text x="748.7" y="438.0" class="cat" text-anchor="end" transform="rotate(-35 748.7 438.0)">many_funcs</text>
<rect x="781.3" y="287.9" width="13.0" height="136.1" fill="#4e79a7" fill-opacity="1.00"/>
<text x="787.8" y="284.9" class="bval" text-anchor="start" transform="rotate(-90 787.8 284.9)">990.1µs</text>
<rect x="795.8" y="289.6" width="13.0" height="134.4" fill="#e15759" fill-opacity="1.00"/>
<text x="802.3" y="286.6" class="bval" text-anchor="start" transform="rotate(-90 802.3 286.6)">910µs</text>
<text x="803.0" y="438.0" class="cat" text-anchor="end" transform="rotate(-35 803.0 438.0)">real_medstack</text>
<rect x="835.6" y="259.1" width="13.0" height="164.9" fill="#4e79a7" fill-opacity="1.00"/>
<text x="842.1" y="256.1" class="bval" text-anchor="start" transform="rotate(-90 842.1 256.1)">4.3ms</text>
<rect x="850.1" y="267.0" width="13.0" height="157.0" fill="#e15759" fill-opacity="1.00"/>
<text x="856.6" y="264.0" class="bval" text-anchor="start" transform="rotate(-90 856.6 264.0)">2.9ms</text>
<rect x="864.6" y="283.3" width="13.0" height="140.7" fill="#f28e2b" fill-opacity="1.00"/>
<text x="871.1" y="280.3" class="bval" text-anchor="start" transform="rotate(-90 871.1 280.3)">1.2ms</text>
<text x="857.3" y="438.0" class="cat" text-anchor="end" transform="rotate(-35 857.3 438.0)">big_func</text>
<rect x="889.9" y="237.7" width="13.0" height="186.3" fill="#4e79a7" fill-opacity="1.00"/>
<text x="896.4" y="234.7" class="bval" text-anchor="start" transform="rotate(-90 896.4 234.7)">12.6ms</text>
<rect x="904.4" y="241.8" width="13.0" height="182.2" fill="#e15759" fill-opacity="1.00"/>
<text x="910.9" y="238.8" class="bval" text-anchor="start" transform="rotate(-90 910.9 238.8)">10.2ms</text>
<text x="911.6" y="438.0" class="cat" text-anchor="end" transform="rotate(-35 911.6 438.0)">real_highstack</text>
<rect x="944.2" y="259.3" width="13.0" height="164.7" fill="#4e79a7" fill-opacity="0.40"/>
<text x="950.7" y="256.3" class="bval" text-anchor="start" transform="rotate(-90 950.7 256.3)">4.2ms</text>
<rect x="958.7" y="213.7" width="13.0" height="210.3" fill="#e15759" fill-opacity="1.00"/>
<text x="965.2" y="210.7" class="bval" text-anchor="start" transform="rotate(-90 965.2 210.7)">42.6ms</text>
<text x="965.9" y="438.0" class="cat" text-anchor="end" transform="rotate(-35 965.9 438.0)">wasm3</text>
<rect x="998.5" y="214.8" width="13.0" height="209.2" fill="#4e79a7" fill-opacity="1.00"/>
<text x="1005.0" y="211.8" class="bval" text-anchor="start" transform="rotate(-90 1005.0 211.8)">40.4ms</text>
<rect x="1013.0" y="220.0" width="13.0" height="204.0" fill="#e15759" fill-opacity="1.00"/>
<text x="1019.5" y="217.0" class="bval" text-anchor="start" transform="rotate(-90 1019.5 217.0)">31ms</text>
<text x="1020.2" y="438.0" class="cat" text-anchor="end" transform="rotate(-35 1020.2 438.0)">real_bigstack</text>
<rect x="1052.8" y="250.3" width="13.0" height="173.7" fill="#4e79a7" fill-opacity="0.40"/>
<text x="1059.3" y="247.3" class="bval" text-anchor="start" transform="rotate(-90 1059.3 247.3)">6.7ms</text>
<rect x="1067.3" y="202.2" width="13.0" height="221.8" fill="#e15759" fill-opacity="1.00"/>
<text x="1073.8" y="199.2" class="bval" text-anchor="start" transform="rotate(-90 1073.8 199.2)">76.5ms</text>
<text x="1074.6" y="438.0" class="cat" text-anchor="end" transform="rotate(-35 1074.6 438.0)">real_dwarf</text>
<rect x="1107.1" y="156.1" width="13.0" height="267.9" fill="#4e79a7" fill-opacity="0.40"/>
<text x="1113.6" y="153.1" class="bval" text-anchor="start" transform="rotate(-90 1113.6 153.1)">791.1ms</text>
<rect x="1121.6" y="130.1" width="13.0" height="293.9" fill="#e15759" fill-opacity="1.00"/>
<text x="1128.1" y="127.1" class="bval" text-anchor="start" transform="rotate(-90 1128.1 127.1)">3s</text>
<text x="1128.9" y="438.0" class="cat" text-anchor="end" transform="rotate(-35 1128.9 438.0)">real_pspdfkit</text>
<line x1="70" y1="424.0" x2="1156" y2="424.0" class="axis"/>
</svg>