<svg width="1180" height="520" viewBox="0 0 1180 520" xmlns="http://www.w3.org/2000/svg" font-family="ui-sans-serif,system-ui,sans-serif">
<style>.val{font-size:10px;fill:#444}.bval{font-size:8px;fill:#555}.cat{font-size:11px;fill:#333}.leg{font-size:11px;fill:#333}.ax{font-size:10px;fill:#888}.grid{stroke:#eee}.axis{stroke:#bbb}</style>
<rect width="1180" height="520" fill="#fff"/>
<text x="70" y="26" font-size="15" font-weight="600" fill="#222">compile time: wago vs wazero vs WARP (ns/op, log scale)</text>
<rect x="70.0" y="34" width="10" height="10" fill="#4e79a7" fill-opacity="1.00"/>
<text x="84.0" y="43.0" class="leg" text-anchor="start">wago</text>
<rect x="117.6" y="34" width="10" height="10" fill="#4e79a7" fill-opacity="0.40"/>
<text x="131.6" y="43.0" class="leg" text-anchor="start">wago (validate only)</text>
<rect x="267.6" y="34" width="10" height="10" fill="#e15759" fill-opacity="1.00"/>
<text x="281.6" y="43.0" class="leg" text-anchor="start">wazero</text>
<rect x="328.0" y="34" width="10" height="10" fill="#f28e2b" fill-opacity="1.00"/>
<text x="342.0" y="43.0" class="leg" text-anchor="start">WARP</text>
<line x1="70" y1="424.0" x2="1156" y2="424.0" class="grid"/>
<text x="64" y="427.0" class="ax" text-anchor="end">1µs</text>
<line x1="70" y1="344.5" x2="1156" y2="344.5" class="grid"/>
<text x="64" y="347.5" class="ax" text-anchor="end">10µs</text>
<line x1="70" y1="265.0" x2="1156" y2="265.0" class="grid"/>
<text x="64" y="268.0" class="ax" text-anchor="end">100µs</text>
<line x1="70" y1="185.5" x2="1156" y2="185.5" class="grid"/>
<text x="64" y="188.5" class="ax" text-anchor="end">1ms</text>
<line x1="70" y1="106.0" x2="1156" y2="106.0" class="grid"/>
<text x="64" y="109.0" class="ax" text-anchor="end">10ms</text>
<rect x="80.9" y="370.1" width="26.1" height="53.9" fill="#4e79a7" fill-opacity="1.00"/>
<text x="93.9" y="367.1" class="bval" text-anchor="start" transform="rotate(-90 93.9 367.1)">4.8µs</text>
<rect x="109.8" y="278.6" width="26.1" height="145.4" fill="#e15759" fill-opacity="1.00"/>
<text x="122.9" y="275.6" class="bval" text-anchor="start" transform="rotate(-90 122.9 275.6)">67.4µs</text>
<text x="124.3" y="438.0" class="cat" text-anchor="end" transform="rotate(-35 124.3 438.0)">tiny</text>
<rect x="189.5" y="355.6" width="26.1" height="68.4" fill="#4e79a7" fill-opacity="1.00"/>
<text x="202.5" y="352.6" class="bval" text-anchor="start" transform="rotate(-90 202.5 352.6)">7.3µs</text>
<rect x="218.4" y="275.5" width="26.1" height="148.5" fill="#e15759" fill-opacity="1.00"/>
<text x="231.5" y="272.5" class="bval" text-anchor="start" transform="rotate(-90 231.5 272.5)">73.7µs</text>
<text x="232.9" y="438.0" class="cat" text-anchor="end" transform="rotate(-35 232.9 438.0)">fib_rec</text>
<rect x="298.1" y="358.9" width="26.1" height="65.1" fill="#4e79a7" fill-opacity="1.00"/>
<text x="311.1" y="355.9" class="bval" text-anchor="start" transform="rotate(-90 311.1 355.9)">6.6µs</text>
<rect x="327.0" y="281.4" width="26.1" height="142.6" fill="#e15759" fill-opacity="1.00"/>
<text x="340.1" y="278.4" class="bval" text-anchor="start" transform="rotate(-90 340.1 278.4)">62.1µs</text>
<text x="341.5" y="438.0" class="cat" text-anchor="end" transform="rotate(-35 341.5 438.0)">branches</text>
<rect x="406.7" y="351.6" width="26.1" height="72.4" fill="#4e79a7" fill-opacity="1.00"/>
<text x="419.7" y="348.6" class="bval" text-anchor="start" transform="rotate(-90 419.7 348.6)">8.1µs</text>
<rect x="435.6" y="276.4" width="26.1" height="147.6" fill="#e15759" fill-opacity="1.00"/>
<text x="448.7" y="273.4" class="bval" text-anchor="start" transform="rotate(-90 448.7 273.4)">71.9µs</text>
<text x="450.1" y="438.0" class="cat" text-anchor="end" transform="rotate(-35 450.1 438.0)">fib_iter</text>
<rect x="515.3" y="347.6" width="26.1" height="76.4" fill="#4e79a7" fill-opacity="1.00"/>
<text x="528.3" y="344.6" class="bval" text-anchor="start" transform="rotate(-90 528.3 344.6)">9.1µs</text>
<rect x="544.2" y="274.9" width="26.1" height="149.1" fill="#e15759" fill-opacity="1.00"/>
<text x="557.3" y="271.9" class="bval" text-anchor="start" transform="rotate(-90 557.3 271.9)">75.2µs</text>
<text x="558.7" y="438.0" class="cat" text-anchor="end" transform="rotate(-35 558.7 438.0)">arith</text>
<rect x="623.9" y="351.9" width="26.1" height="72.1" fill="#4e79a7" fill-opacity="1.00"/>
<text x="636.9" y="348.9" class="bval" text-anchor="start" transform="rotate(-90 636.9 348.9)">8.1µs</text>
<rect x="652.8" y="275.6" width="26.1" height="148.4" fill="#e15759" fill-opacity="1.00"/>
<text x="665.9" y="272.6" class="bval" text-anchor="start" transform="rotate(-90 665.9 272.6)">73.5µs</text>
<text x="667.3" y="438.0" class="cat" text-anchor="end" transform="rotate(-35 667.3 438.0)">float</text>
<rect x="732.5" y="348.7" width="26.1" height="75.3" fill="#4e79a7" fill-opacity="1.00"/>
<text x="745.5" y="345.7" class="bval" text-anchor="start" transform="rotate(-90 745.5 345.7)">8.9µs</text>
<rect x="761.4" y="272.2" width="26.1" height="151.8" fill="#e15759" fill-opacity="1.00"/>
<text x="774.5" y="269.2" class="bval" text-anchor="start" transform="rotate(-90 774.5 269.2)">81.1µs</text>
<text x="775.9" y="438.0" class="cat" text-anchor="end" transform="rotate(-35 775.9 438.0)">globals</text>
<rect x="841.1" y="337.9" width="26.1" height="86.1" fill="#4e79a7" fill-opacity="1.00"/>
<text x="854.1" y="334.9" class="bval" text-anchor="start" transform="rotate(-90 854.1 334.9)">12.1µs</text>
<rect x="870.0" y="270.5" width="26.1" height="153.5" fill="#e15759" fill-opacity="1.00"/>
<text x="883.1" y="267.5" class="bval" text-anchor="start" transform="rotate(-90 883.1 267.5)">85.2µs</text>
<text x="884.5" y="438.0" class="cat" text-anchor="end" transform="rotate(-35 884.5 438.0)">dispatch</text>
<rect x="949.7" y="331.4" width="26.1" height="92.6" fill="#4e79a7" fill-opacity="1.00"/>
<text x="962.7" y="328.4" class="bval" text-anchor="start" transform="rotate(-90 962.7 328.4)">14.6µs</text>
<rect x="978.6" y="264.3" width="26.1" height="159.7" fill="#e15759" fill-opacity="1.00"/>
<text x="991.7" y="261.3" class="bval" text-anchor="start" transform="rotate(-90 991.7 261.3)">102µs</text>
<text x="993.1" y="438.0" class="cat" text-anchor="end" transform="rotate(-35 993.1 438.0)">memory</text>
<rect x="1058.3" y="214.7" width="26.1" height="209.3" fill="#4e79a7" fill-opacity="1.00"/>
<text x="1071.3" y="211.7" class="bval" text-anchor="start" transform="rotate(-90 1071.3 211.7)">429.6µs</text>
<rect x="1087.2" y="182.5" width="26.1" height="241.5" fill="#e15759" fill-opacity="1.00"/>
<text x="1100.3" y="179.5" class="bval" text-anchor="start" transform="rotate(-90 1100.3 179.5)">1.1ms</text>
<text x="1101.7" y="438.0" class="cat" text-anchor="end" transform="rotate(-35 1101.7 438.0)">many_funcs</text>
<line x1="70" y1="424.0" x2="1156" y2="424.0" class="axis"/>
</svg>