<svg width="900" height="450" viewBox="0 0 900 450" xmlns="http://www.w3.org/2000/svg" font-family="ui-sans-serif,system-ui,sans-serif">
<style>.val{font-size:10px;fill:#444}.cat{font-size:11px;fill:#333}.leg{font-size:11px;fill:#333}.ax{font-size:10px;fill:#888}.grid{stroke:#eee}.axis{stroke:#bbb}</style>
<rect width="900" height="450" fill="#fff"/>
<text x="70" y="26" font-size="15" font-weight="600" fill="#222">exec time: wago vs wazero vs WARP (ns/op, log scale, lower is faster)</text>
<rect x="70.0" y="34" width="10" height="10" fill="#4e79a7" fill-opacity="1.00"/>
<text x="84.0" y="43.0" class="leg" text-anchor="start">wago</text>
<rect x="117.6" y="34" width="10" height="10" fill="#e15759" fill-opacity="1.00"/>
<text x="131.6" y="43.0" class="leg" text-anchor="start">wazero</text>
<rect x="178.0" y="34" width="10" height="10" fill="#f28e2b" fill-opacity="1.00"/>
<text x="192.0" y="43.0" class="leg" text-anchor="start">WARP</text>
<line x1="70" y1="354.0" x2="876" y2="354.0" class="grid"/>
<text x="64" y="357.0" class="ax" text-anchor="end">10ns</text>
<line x1="70" y1="306.3" x2="876" y2="306.3" class="grid"/>
<text x="64" y="309.3" class="ax" text-anchor="end">100ns</text>
<line x1="70" y1="258.7" x2="876" y2="258.7" class="grid"/>
<text x="64" y="261.7" class="ax" text-anchor="end">1µs</text>
<line x1="70" y1="211.0" x2="876" y2="211.0" class="grid"/>
<text x="64" y="214.0" class="ax" text-anchor="end">10µs</text>
<line x1="70" y1="163.3" x2="876" y2="163.3" class="grid"/>
<text x="64" y="166.3" class="ax" text-anchor="end">100µs</text>
<line x1="70" y1="115.7" x2="876" y2="115.7" class="grid"/>
<text x="64" y="118.7" class="ax" text-anchor="end">1ms</text>
<line x1="70" y1="68.0" x2="876" y2="68.0" class="grid"/>
<text x="64" y="71.0" class="ax" text-anchor="end">10ms</text>
<rect x="75.0" y="229.4" width="12.1" height="124.6" fill="#4e79a7"/>
<rect x="88.5" y="251.7" width="12.1" height="102.3" fill="#e15759"/>
<rect x="101.9" y="250.3" width="12.1" height="103.7" fill="#f28e2b"/>
<text x="95.2" y="368.0" class="cat" text-anchor="end" transform="rotate(-35 95.2 368.0)">arith.run</text>
<rect x="125.4" y="245.7" width="12.1" height="108.3" fill="#4e79a7"/>
<rect x="138.8" y="245.9" width="12.1" height="108.1" fill="#e15759"/>
<rect x="152.3" y="246.0" width="12.1" height="108.0" fill="#f28e2b"/>
<text x="145.6" y="368.0" class="cat" text-anchor="end" transform="rotate(-35 145.6 368.0)">big_func.run</text>
<rect x="175.8" y="338.3" width="12.1" height="15.7" fill="#4e79a7"/>
<rect x="189.2" y="336.5" width="12.1" height="17.5" fill="#e15759"/>
<rect x="202.7" y="337.0" width="12.1" height="17.0" fill="#f28e2b"/>
<text x="195.9" y="368.0" class="cat" text-anchor="end" transform="rotate(-35 195.9 368.0)">branches.classify</text>
<rect x="226.2" y="330.4" width="12.1" height="23.6" fill="#4e79a7"/>
<rect x="239.6" y="332.2" width="12.1" height="21.8" fill="#e15759"/>
<rect x="253.0" y="335.5" width="12.1" height="18.5" fill="#f28e2b"/>
<text x="246.3" y="368.0" class="cat" text-anchor="end" transform="rotate(-35 246.3 368.0)">dispatch.apply</text>
<rect x="276.5" y="315.7" width="12.1" height="38.3" fill="#4e79a7"/>
<rect x="290.0" y="330.1" width="12.1" height="23.9" fill="#e15759"/>
<rect x="303.4" y="328.9" width="12.1" height="25.1" fill="#f28e2b"/>
<text x="296.7" y="368.0" class="cat" text-anchor="end" transform="rotate(-35 296.7 368.0)">fib_iter.fib</text>
<rect x="326.9" y="94.4" width="12.1" height="259.6" fill="#4e79a7"/>
<rect x="340.3" y="101.2" width="12.1" height="252.8" fill="#e15759"/>
<rect x="353.8" y="112.0" width="12.1" height="242.0" fill="#f28e2b"/>
<text x="347.1" y="368.0" class="cat" text-anchor="end" transform="rotate(-35 347.1 368.0)">fib_rec.fib</text>
<rect x="377.3" y="220.5" width="12.1" height="133.5" fill="#4e79a7"/>
<rect x="390.7" y="231.0" width="12.1" height="123.0" fill="#e15759"/>
<rect x="404.2" y="231.0" width="12.1" height="123.0" fill="#f28e2b"/>
<text x="397.4" y="368.0" class="cat" text-anchor="end" transform="rotate(-35 397.4 368.0)">float.run</text>
<rect x="427.7" y="236.8" width="12.1" height="117.2" fill="#4e79a7"/>
<rect x="441.1" y="242.0" width="12.1" height="112.0" fill="#e15759"/>
<rect x="454.5" y="243.8" width="12.1" height="110.2" fill="#f28e2b"/>
<text x="447.8" y="368.0" class="cat" text-anchor="end" transform="rotate(-35 447.8 368.0)">geo.geo_area</text>
<rect x="478.0" y="235.6" width="12.1" height="118.4" fill="#4e79a7"/>
<rect x="491.5" y="240.3" width="12.1" height="113.7" fill="#e15759"/>
<rect x="504.9" y="239.1" width="12.1" height="114.9" fill="#f28e2b"/>
<text x="498.2" y="368.0" class="cat" text-anchor="end" transform="rotate(-35 498.2 368.0)">geo.geo_perimeter</text>
<rect x="528.4" y="236.8" width="12.1" height="117.2" fill="#4e79a7"/>
<rect x="541.8" y="241.0" width="12.1" height="113.0" fill="#e15759"/>
<rect x="555.3" y="244.1" width="12.1" height="109.9" fill="#f28e2b"/>
<text x="548.6" y="368.0" class="cat" text-anchor="end" transform="rotate(-35 548.6 368.0)">geo.geo_pip</text>
<rect x="578.8" y="240.7" width="12.1" height="113.3" fill="#4e79a7"/>
<rect x="592.2" y="261.6" width="12.1" height="92.4" fill="#e15759"/>
<rect x="605.7" y="235.4" width="12.1" height="118.6" fill="#f28e2b"/>
<text x="598.9" y="368.0" class="cat" text-anchor="end" transform="rotate(-35 598.9 368.0)">globals.accumulate</text>
<rect x="629.2" y="211.0" width="12.1" height="143.0" fill="#4e79a7"/>
<rect x="642.6" y="225.6" width="12.1" height="128.4" fill="#e15759"/>
<rect x="656.0" y="225.4" width="12.1" height="128.6" fill="#f28e2b"/>
<text x="649.3" y="368.0" class="cat" text-anchor="end" transform="rotate(-35 649.3 368.0)">hash.hashmix</text>
<rect x="679.5" y="131.1" width="12.1" height="222.9" fill="#4e79a7"/>
<rect x="693.0" y="152.9" width="12.1" height="201.1" fill="#e15759"/>
<rect x="706.4" y="148.7" width="12.1" height="205.3" fill="#f28e2b"/>
<text x="699.7" y="368.0" class="cat" text-anchor="end" transform="rotate(-35 699.7 368.0)">mandel.mandel</text>
<rect x="729.9" y="331.0" width="12.1" height="23.0" fill="#4e79a7"/>
<rect x="743.3" y="334.2" width="12.1" height="19.8" fill="#e15759"/>
<rect x="756.8" y="335.0" width="12.1" height="19.0" fill="#f28e2b"/>
<text x="750.1" y="368.0" class="cat" text-anchor="end" transform="rotate(-35 750.1 368.0)">many_funcs.run</text>
<rect x="780.3" y="263.4" width="12.1" height="90.6" fill="#4e79a7"/>
<rect x="793.7" y="280.4" width="12.1" height="73.6" fill="#e15759"/>
<rect x="807.2" y="287.9" width="12.1" height="66.1" fill="#f28e2b"/>
<text x="800.4" y="368.0" class="cat" text-anchor="end" transform="rotate(-35 800.4 368.0)">memory.sum</text>
<rect x="830.7" y="334.5" width="12.1" height="19.5" fill="#4e79a7"/>
<rect x="844.1" y="334.1" width="12.1" height="19.9" fill="#e15759"/>
<rect x="857.5" y="333.4" width="12.1" height="20.6" fill="#f28e2b"/>
<text x="850.8" y="368.0" class="cat" text-anchor="end" transform="rotate(-35 850.8 368.0)">tiny.add</text>
<line x1="70" y1="354.0" x2="876" y2="354.0" class="axis"/>
</svg>