<svg width="1180" height="490" viewBox="0 0 1180 490" xmlns="http://www.w3.org/2000/svg" font-family="ui-sans-serif,system-ui,sans-serif">
<style>.val{font-size:10px;fill:#444}.bval{font-size:8px;fill:#555}.cat{font-size:11px;fill:#333}.leg{font-size:11px;fill:#333}.ax{font-size:10px;fill:#888}.grid{stroke:#eee}.axis{stroke:#bbb}</style>
<rect width="1180" height="490" fill="#fff"/>
<text x="70" y="26" font-size="15" font-weight="600" fill="#222">exec time: wago vs wazero vs WARP (ns/op, log scale, lower is faster)</text>
<rect x="70.0" y="34" width="10" height="10" fill="#4e79a7" fill-opacity="1.00"/>
<text x="84.0" y="43.0" class="leg" text-anchor="start">wago</text>
<rect x="117.6" y="34" width="10" height="10" fill="#e15759" fill-opacity="1.00"/>
<text x="131.6" y="43.0" class="leg" text-anchor="start">wazero</text>
<rect x="178.0" y="34" width="10" height="10" fill="#f28e2b" fill-opacity="1.00"/>
<text x="192.0" y="43.0" class="leg" text-anchor="start">WARP</text>
<line x1="70" y1="394.0" x2="1156" y2="394.0" class="grid"/>
<text x="64" y="397.0" class="ax" text-anchor="end">10ns</text>
<line x1="70" y1="346.0" x2="1156" y2="346.0" class="grid"/>
<text x="64" y="349.0" class="ax" text-anchor="end">100ns</text>
<line x1="70" y1="298.0" x2="1156" y2="298.0" class="grid"/>
<text x="64" y="301.0" class="ax" text-anchor="end">1µs</text>
<line x1="70" y1="250.0" x2="1156" y2="250.0" class="grid"/>
<text x="64" y="253.0" class="ax" text-anchor="end">10µs</text>
<line x1="70" y1="202.0" x2="1156" y2="202.0" class="grid"/>
<text x="64" y="205.0" class="ax" text-anchor="end">100µs</text>
<line x1="70" y1="154.0" x2="1156" y2="154.0" class="grid"/>
<text x="64" y="157.0" class="ax" text-anchor="end">1ms</text>
<line x1="70" y1="106.0" x2="1156" y2="106.0" class="grid"/>
<text x="64" y="109.0" class="ax" text-anchor="end">10ms</text>
<rect x="80.9" y="289.7" width="26.1" height="104.3" fill="#4e79a7"/>
<text x="93.9" y="286.7" class="bval" text-anchor="start" transform="rotate(-90 93.9 286.7)">1.5µs</text>
<rect x="109.8" y="290.5" width="26.1" height="103.5" fill="#e15759"/>
<text x="122.9" y="287.5" class="bval" text-anchor="start" transform="rotate(-90 122.9 287.5)">1.4µs</text>
<text x="124.3" y="408.0" class="cat" text-anchor="end" transform="rotate(-35 124.3 408.0)">arith.run</text>
<rect x="189.5" y="376.3" width="26.1" height="17.7" fill="#4e79a7"/>
<text x="202.5" y="373.3" class="bval" text-anchor="start" transform="rotate(-90 202.5 373.3)">23.4ns</text>
<rect x="218.4" y="374.8" width="26.1" height="19.2" fill="#e15759"/>
<text x="231.5" y="371.8" class="bval" text-anchor="start" transform="rotate(-90 231.5 371.8)">25.1ns</text>
<text x="232.9" y="408.0" class="cat" text-anchor="end" transform="rotate(-35 232.9 408.0)">branches.classify</text>
<rect x="298.1" y="367.3" width="26.1" height="26.7" fill="#4e79a7"/>
<text x="311.1" y="364.3" class="bval" text-anchor="start" transform="rotate(-90 311.1 364.3)">36.1ns</text>
<rect x="327.0" y="371.2" width="26.1" height="22.8" fill="#e15759"/>
<text x="340.1" y="368.2" class="bval" text-anchor="start" transform="rotate(-90 340.1 368.2)">29.9ns</text>
<text x="341.5" y="408.0" class="cat" text-anchor="end" transform="rotate(-35 341.5 408.0)">dispatch.apply</text>
<rect x="406.7" y="367.3" width="26.1" height="26.7" fill="#4e79a7"/>
<text x="419.7" y="364.3" class="bval" text-anchor="start" transform="rotate(-90 419.7 364.3)">36.1ns</text>
<rect x="435.6" y="368.5" width="26.1" height="25.5" fill="#e15759"/>
<text x="448.7" y="365.5" class="bval" text-anchor="start" transform="rotate(-90 448.7 365.5)">33.9ns</text>
<text x="450.1" y="408.0" class="cat" text-anchor="end" transform="rotate(-35 450.1 408.0)">fib_iter.fib</text>
<rect x="515.3" y="130.8" width="26.1" height="263.2" fill="#4e79a7"/>
<text x="528.3" y="127.8" class="bval" text-anchor="start" transform="rotate(-90 528.3 127.8)">3ms</text>
<rect x="544.2" y="138.3" width="26.1" height="255.7" fill="#e15759"/>
<text x="557.3" y="135.3" class="bval" text-anchor="start" transform="rotate(-90 557.3 135.3)">2.1ms</text>
<text x="558.7" y="408.0" class="cat" text-anchor="end" transform="rotate(-35 558.7 408.0)">fib_rec.fib</text>
<rect x="623.9" y="258.9" width="26.1" height="135.1" fill="#4e79a7"/>
<text x="636.9" y="255.9" class="bval" text-anchor="start" transform="rotate(-90 636.9 255.9)">6.5µs</text>
<rect x="652.8" y="269.5" width="26.1" height="124.5" fill="#e15759"/>
<text x="665.9" y="266.5" class="bval" text-anchor="start" transform="rotate(-90 665.9 266.5)">3.9µs</text>
<text x="667.3" y="408.0" class="cat" text-anchor="end" transform="rotate(-35 667.3 408.0)">float.run</text>
<rect x="732.5" y="285.9" width="26.1" height="108.1" fill="#4e79a7"/>
<text x="745.5" y="282.9" class="bval" text-anchor="start" transform="rotate(-90 745.5 282.9)">1.8µs</text>
<rect x="761.4" y="300.0" width="26.1" height="94.0" fill="#e15759"/>
<text x="774.5" y="297.0" class="bval" text-anchor="start" transform="rotate(-90 774.5 297.0)">907.5ns</text>
<text x="775.9" y="408.0" class="cat" text-anchor="end" transform="rotate(-35 775.9 408.0)">globals.accumulate</text>
<rect x="841.1" y="369.2" width="26.1" height="24.8" fill="#4e79a7"/>
<text x="854.1" y="366.2" class="bval" text-anchor="start" transform="rotate(-90 854.1 366.2)">32.8ns</text>
<rect x="870.0" y="372.7" width="26.1" height="21.3" fill="#e15759"/>
<text x="883.1" y="369.7" class="bval" text-anchor="start" transform="rotate(-90 883.1 369.7)">27.8ns</text>
<text x="884.5" y="408.0" class="cat" text-anchor="end" transform="rotate(-35 884.5 408.0)">many_funcs.run</text>
<rect x="949.7" y="313.9" width="26.1" height="80.1" fill="#4e79a7"/>
<text x="962.7" y="310.9" class="bval" text-anchor="start" transform="rotate(-90 962.7 310.9)">466.8ns</text>
<rect x="978.6" y="319.0" width="26.1" height="75.0" fill="#e15759"/>
<text x="991.7" y="316.0" class="bval" text-anchor="start" transform="rotate(-90 991.7 316.0)">365.8ns</text>
<text x="993.1" y="408.0" class="cat" text-anchor="end" transform="rotate(-35 993.1 408.0)">memory.sum</text>
<rect x="1058.3" y="374.0" width="26.1" height="20.0" fill="#4e79a7"/>
<text x="1071.3" y="371.0" class="bval" text-anchor="start" transform="rotate(-90 1071.3 371.0)">26.1ns</text>
<rect x="1087.2" y="372.6" width="26.1" height="21.4" fill="#e15759"/>
<text x="1100.3" y="369.6" class="bval" text-anchor="start" transform="rotate(-90 1100.3 369.6)">28ns</text>
<text x="1101.7" y="408.0" class="cat" text-anchor="end" transform="rotate(-35 1101.7 408.0)">tiny.add</text>
<line x1="70" y1="394.0" x2="1156" y2="394.0" class="axis"/>
</svg>