<svg width="1180" height="420" viewBox="0 0 1180 420" xmlns="http://www.w3.org/2000/svg" font-family="ui-sans-serif,system-ui,sans-serif">
<style>.val{font-size:10px;fill:#444}.bval{font-size:8px;fill:#555}.cat{font-size:11px;fill:#333}.leg{font-size:11px;fill:#333}.ax{font-size:10px;fill:#888}.grid{stroke:#eee}.axis{stroke:#bbb}</style>
<rect width="1180" height="420" fill="#fff"/>
<text x="70" y="26" font-size="15" font-weight="600" fill="#222">wago Compile — ns/op by module (log scale, lower is faster)</text>
<line x1="70" y1="324.0" x2="1156" y2="324.0" class="grid"/>
<text x="64" y="327.0" class="ax" text-anchor="end">100ns</text>
<line x1="70" y1="268.8" x2="1156" y2="268.8" class="grid"/>
<text x="64" y="271.8" class="ax" text-anchor="end">1µs</text>
<line x1="70" y1="213.6" x2="1156" y2="213.6" class="grid"/>
<text x="64" y="216.6" class="ax" text-anchor="end">10µs</text>
<line x1="70" y1="158.4" x2="1156" y2="158.4" class="grid"/>
<text x="64" y="161.4" class="ax" text-anchor="end">100µs</text>
<line x1="70" y1="103.2" x2="1156" y2="103.2" class="grid"/>
<text x="64" y="106.2" class="ax" text-anchor="end">1ms</text>
<line x1="70" y1="48.0" x2="1156" y2="48.0" class="grid"/>
<text x="64" y="51.0" class="ax" text-anchor="end">10ms</text>
<rect x="82.8" y="265.0" width="38.3" height="59.0" fill="#4e79a7"/>
<text x="101.9" y="261.0" class="val" text-anchor="middle">1.2µs</text>
<text x="101.9" y="338.0" class="cat" text-anchor="end" transform="rotate(-35 101.9 338.0)">arith</text>
<rect x="146.7" y="123.6" width="38.3" height="200.4" fill="#f28e2b"/>
<text x="165.8" y="119.6" class="val" text-anchor="middle">427.3µs</text>
<text x="165.8" y="338.0" class="cat" text-anchor="end" transform="rotate(-35 165.8 338.0)">big_func</text>
<rect x="210.5" y="269.5" width="38.3" height="54.5" fill="#59a14f"/>
<text x="229.7" y="265.5" class="val" text-anchor="middle">970.4ns</text>
<text x="229.7" y="338.0" class="cat" text-anchor="end" transform="rotate(-35 229.7 338.0)">branches</text>
<rect x="274.4" y="244.8" width="38.3" height="79.2" fill="#e15759"/>
<text x="293.6" y="240.8" class="val" text-anchor="middle">2.7µs</text>
<text x="293.6" y="338.0" class="cat" text-anchor="end" transform="rotate(-35 293.6 338.0)">dispatch</text>
<rect x="338.3" y="267.8" width="38.3" height="56.2" fill="#76b7b2"/>
<text x="357.5" y="263.8" class="val" text-anchor="middle">1µs</text>
<text x="357.5" y="338.0" class="cat" text-anchor="end" transform="rotate(-35 357.5 338.0)">fib_iter</text>
<rect x="402.2" y="263.3" width="38.3" height="60.7" fill="#edc948"/>
<text x="421.4" y="259.3" class="val" text-anchor="middle">1.3µs</text>
<text x="421.4" y="338.0" class="cat" text-anchor="end" transform="rotate(-35 421.4 338.0)">fib_rec</text>
<rect x="466.1" y="265.1" width="38.3" height="58.9" fill="#b07aa1"/>
<text x="485.2" y="261.1" class="val" text-anchor="middle">1.2µs</text>
<text x="485.2" y="338.0" class="cat" text-anchor="end" transform="rotate(-35 485.2 338.0)">float</text>
<rect x="530.0" y="196.5" width="38.3" height="127.5" fill="#ff9da7"/>
<text x="549.1" y="192.5" class="val" text-anchor="middle">20.4µs</text>
<text x="549.1" y="338.0" class="cat" text-anchor="end" transform="rotate(-35 549.1 338.0)">geo</text>
<rect x="593.8" y="261.4" width="38.3" height="62.6" fill="#9c755f"/>
<text x="613.0" y="257.4" class="val" text-anchor="middle">1.4µs</text>
<text x="613.0" y="338.0" class="cat" text-anchor="end" transform="rotate(-35 613.0 338.0)">globals</text>
<rect x="657.7" y="234.5" width="38.3" height="89.5" fill="#bab0ac"/>
<text x="676.9" y="230.5" class="val" text-anchor="middle">4.2µs</text>
<text x="676.9" y="338.0" class="cat" text-anchor="end" transform="rotate(-35 676.9 338.0)">hash</text>
<rect x="721.6" y="231.7" width="38.3" height="92.3" fill="#1b9e77"/>
<text x="740.8" y="227.7" class="val" text-anchor="middle">4.7µs</text>
<text x="740.8" y="338.0" class="cat" text-anchor="end" transform="rotate(-35 740.8 338.0)">mandel</text>
<rect x="785.5" y="154.7" width="38.3" height="169.3" fill="#d95f02"/>
<text x="804.6" y="150.7" class="val" text-anchor="middle">116.6µs</text>
<text x="804.6" y="338.0" class="cat" text-anchor="end" transform="rotate(-35 804.6 338.0)">many_funcs</text>
<rect x="849.4" y="250.3" width="38.3" height="73.7" fill="#4e79a7"/>
<text x="868.5" y="246.3" class="val" text-anchor="middle">2.2µs</text>
<text x="868.5" y="338.0" class="cat" text-anchor="end" transform="rotate(-35 868.5 338.0)">memory</text>
<rect x="913.2" y="76.5" width="38.3" height="247.5" fill="#f28e2b"/>
<text x="932.4" y="72.5" class="val" text-anchor="middle">3.1ms</text>
<text x="932.4" y="338.0" class="cat" text-anchor="end" transform="rotate(-35 932.4 338.0)">real_bigstack</text>
<rect x="977.1" y="101.7" width="38.3" height="222.3" fill="#59a14f"/>
<text x="996.3" y="97.7" class="val" text-anchor="middle">1.1ms</text>
<text x="996.3" y="338.0" class="cat" text-anchor="end" transform="rotate(-35 996.3 338.0)">real_highstack</text>
<rect x="1041.0" y="158.4" width="38.3" height="165.6" fill="#e15759"/>
<text x="1060.2" y="154.4" class="val" text-anchor="middle">100µs</text>
<text x="1060.2" y="338.0" class="cat" text-anchor="end" transform="rotate(-35 1060.2 338.0)">real_medstack</text>
<rect x="1104.9" y="275.7" width="38.3" height="48.3" fill="#76b7b2"/>
<text x="1124.1" y="271.7" class="val" text-anchor="middle">748.7ns</text>
<text x="1124.1" y="338.0" class="cat" text-anchor="end" transform="rotate(-35 1124.1 338.0)">tiny</text>
<line x1="70" y1="324.0" x2="1156" y2="324.0" class="axis"/>
</svg>