<svg width="900" height="420" viewBox="0 0 900 420" xmlns="http://www.w3.org/2000/svg" font-family="ui-sans-serif,system-ui,sans-serif">
<style>.val{font-size:10px;fill:#444}.cat{font-size:11px;fill:#333}.leg{font-size:11px;fill:#333}.ax{font-size:10px;fill:#888}.grid{stroke:#eee}.axis{stroke:#bbb}</style>
<rect width="900" height="420" fill="#fff"/>
<text x="70" y="26" font-size="15" font-weight="600" fill="#222">wago CompileFull — ns/op by module (log scale, lower is faster)</text>
<line x1="70" y1="324.0" x2="876" y2="324.0" class="grid"/>
<text x="64" y="327.0" class="ax" text-anchor="end">1µs</text>
<line x1="70" y1="268.8" x2="876" y2="268.8" class="grid"/>
<text x="64" y="271.8" class="ax" text-anchor="end">10µs</text>
<line x1="70" y1="213.6" x2="876" y2="213.6" class="grid"/>
<text x="64" y="216.6" class="ax" text-anchor="end">100µs</text>
<line x1="70" y1="158.4" x2="876" y2="158.4" class="grid"/>
<text x="64" y="161.4" class="ax" text-anchor="end">1ms</text>
<line x1="70" y1="103.2" x2="876" y2="103.2" class="grid"/>
<text x="64" y="106.2" class="ax" text-anchor="end">10ms</text>
<line x1="70" y1="48.0" x2="876" y2="48.0" class="grid"/>
<text x="64" y="51.0" class="ax" text-anchor="end">100ms</text>
<rect x="79.5" y="273.4" width="28.4" height="50.6" fill="#4e79a7"/>
<text x="93.7" y="269.4" class="val" text-anchor="middle">8.3µs</text>
<text x="93.7" y="338.0" class="cat" text-anchor="end" transform="rotate(-35 93.7 338.0)">arith</text>
<rect x="126.9" y="123.6" width="28.4" height="200.4" fill="#f28e2b"/>
<text x="141.1" y="119.6" class="val" text-anchor="middle">4.3ms</text>
<text x="141.1" y="338.0" class="cat" text-anchor="end" transform="rotate(-35 141.1 338.0)">big_func</text>
<rect x="174.3" y="281.6" width="28.4" height="42.4" fill="#59a14f"/>
<text x="188.5" y="277.6" class="val" text-anchor="middle">5.9µs</text>
<text x="188.5" y="338.0" class="cat" text-anchor="end" transform="rotate(-35 188.5 338.0)">branches</text>
<rect x="221.7" y="267.9" width="28.4" height="56.1" fill="#e15759"/>
<text x="235.9" y="263.9" class="val" text-anchor="middle">10.4µs</text>
<text x="235.9" y="338.0" class="cat" text-anchor="end" transform="rotate(-35 235.9 338.0)">dispatch</text>
<rect x="269.1" y="276.3" width="28.4" height="47.7" fill="#76b7b2"/>
<text x="283.4" y="272.3" class="val" text-anchor="middle">7.3µs</text>
<text x="283.4" y="338.0" class="cat" text-anchor="end" transform="rotate(-35 283.4 338.0)">fib_iter</text>
<rect x="316.5" y="279.1" width="28.4" height="44.9" fill="#edc948"/>
<text x="330.8" y="275.1" class="val" text-anchor="middle">6.5µs</text>
<text x="330.8" y="338.0" class="cat" text-anchor="end" transform="rotate(-35 330.8 338.0)">fib_rec</text>
<rect x="364.0" y="276.8" width="28.4" height="47.2" fill="#b07aa1"/>
<text x="378.2" y="272.8" class="val" text-anchor="middle">7.2µs</text>
<text x="378.2" y="338.0" class="cat" text-anchor="end" transform="rotate(-35 378.2 338.0)">float</text>
<rect x="411.4" y="208.3" width="28.4" height="115.7" fill="#ff9da7"/>
<text x="425.6" y="204.3" class="val" text-anchor="middle">124.8µs</text>
<text x="425.6" y="338.0" class="cat" text-anchor="end" transform="rotate(-35 425.6 338.0)">geo</text>
<rect x="458.8" y="274.3" width="28.4" height="49.7" fill="#9c755f"/>
<text x="473.0" y="270.3" class="val" text-anchor="middle">7.9µs</text>
<text x="473.0" y="338.0" class="cat" text-anchor="end" transform="rotate(-35 473.0 338.0)">globals</text>
<rect x="506.2" y="237.8" width="28.4" height="86.2" fill="#bab0ac"/>
<text x="520.4" y="233.8" class="val" text-anchor="middle">36.5µs</text>
<text x="520.4" y="338.0" class="cat" text-anchor="end" transform="rotate(-35 520.4 338.0)">hash</text>
<rect x="553.6" y="237.0" width="28.4" height="87.0" fill="#1b9e77"/>
<text x="567.8" y="233.0" class="val" text-anchor="middle">37.6µs</text>
<text x="567.8" y="338.0" class="cat" text-anchor="end" transform="rotate(-35 567.8 338.0)">mandel</text>
<rect x="601.0" y="182.8" width="28.4" height="141.2" fill="#d95f02"/>
<text x="615.2" y="178.8" class="val" text-anchor="middle">362.1µs</text>
<text x="615.2" y="338.0" class="cat" text-anchor="end" transform="rotate(-35 615.2 338.0)">many_funcs</text>
<rect x="648.4" y="262.5" width="28.4" height="61.5" fill="#4e79a7"/>
<text x="662.6" y="258.5" class="val" text-anchor="middle">13µs</text>
<text x="662.6" y="338.0" class="cat" text-anchor="end" transform="rotate(-35 662.6 338.0)">memory</text>
<rect x="695.8" y="69.8" width="28.4" height="254.2" fill="#f28e2b"/>
<text x="710.1" y="65.8" class="val" text-anchor="middle">40.4ms</text>
<text x="710.1" y="338.0" class="cat" text-anchor="end" transform="rotate(-35 710.1 338.0)">real_bigstack</text>
<rect x="743.2" y="97.7" width="28.4" height="226.3" fill="#59a14f"/>
<text x="757.5" y="93.7" class="val" text-anchor="middle">12.6ms</text>
<text x="757.5" y="338.0" class="cat" text-anchor="end" transform="rotate(-35 757.5 338.0)">real_highstack</text>
<rect x="790.7" y="158.6" width="28.4" height="165.4" fill="#e15759"/>
<text x="804.9" y="154.6" class="val" text-anchor="middle">990.1µs</text>
<text x="804.9" y="338.0" class="cat" text-anchor="end" transform="rotate(-35 804.9 338.0)">real_medstack</text>
<rect x="838.1" y="289.2" width="28.4" height="34.8" fill="#76b7b2"/>
<text x="852.3" y="285.2" class="val" text-anchor="middle">4.3µs</text>
<text x="852.3" y="338.0" class="cat" text-anchor="end" transform="rotate(-35 852.3 338.0)">tiny</text>
<line x1="70" y1="324.0" x2="876" y2="324.0" class="axis"/>
</svg>