<svg width="1180" height="420" viewBox="0 0 1180 420" xmlns="http://www.w3.org/2000/svg" font-family="ui-sans-serif,system-ui,sans-serif">
<style>.val{font-size:10px;fill:#444}.bval{font-size:8px;fill:#555}.cat{font-size:11px;fill:#333}.leg{font-size:11px;fill:#333}.ax{font-size:10px;fill:#888}.grid{stroke:#eee}.axis{stroke:#bbb}</style>
<rect width="1180" height="420" fill="#fff"/>
<text x="70" y="26" font-size="15" font-weight="600" fill="#222">wago Compile — ns/op by module (log scale, lower is faster)</text>
<line x1="70" y1="324.0" x2="1156" y2="324.0" class="grid"/>
<text x="64" y="327.0" class="ax" text-anchor="end">100ns</text>
<line x1="70" y1="255.0" x2="1156" y2="255.0" class="grid"/>
<text x="64" y="258.0" class="ax" text-anchor="end">1µs</text>
<line x1="70" y1="186.0" x2="1156" y2="186.0" class="grid"/>
<text x="64" y="189.0" class="ax" text-anchor="end">10µs</text>
<line x1="70" y1="117.0" x2="1156" y2="117.0" class="grid"/>
<text x="64" y="120.0" class="ax" text-anchor="end">100µs</text>
<line x1="70" y1="48.0" x2="1156" y2="48.0" class="grid"/>
<text x="64" y="51.0" class="ax" text-anchor="end">1ms</text>
<rect x="91.7" y="245.6" width="65.2" height="78.4" fill="#4e79a7"/>
<text x="124.3" y="241.6" class="val" text-anchor="middle">1.4µs</text>
<text x="124.3" y="338.0" class="cat" text-anchor="end" transform="rotate(-35 124.3 338.0)">arith</text>
<rect x="200.3" y="250.4" width="65.2" height="73.6" fill="#f28e2b"/>
<text x="232.9" y="246.4" class="val" text-anchor="middle">1.2µs</text>
<text x="232.9" y="338.0" class="cat" text-anchor="end" transform="rotate(-35 232.9 338.0)">branches</text>
<rect x="308.9" y="216.4" width="65.2" height="107.6" fill="#59a14f"/>
<text x="341.5" y="212.4" class="val" text-anchor="middle">3.6µs</text>
<text x="341.5" y="338.0" class="cat" text-anchor="end" transform="rotate(-35 341.5 338.0)">dispatch</text>
<rect x="417.5" y="249.0" width="65.2" height="75.0" fill="#e15759"/>
<text x="450.1" y="245.0" class="val" text-anchor="middle">1.2µs</text>
<text x="450.1" y="338.0" class="cat" text-anchor="end" transform="rotate(-35 450.1 338.0)">fib_iter</text>
<rect x="526.1" y="244.1" width="65.2" height="79.9" fill="#76b7b2"/>
<text x="558.7" y="240.1" class="val" text-anchor="middle">1.4µs</text>
<text x="558.7" y="338.0" class="cat" text-anchor="end" transform="rotate(-35 558.7 338.0)">fib_rec</text>
<rect x="634.7" y="246.2" width="65.2" height="77.8" fill="#edc948"/>
<text x="667.3" y="242.2" class="val" text-anchor="middle">1.3µs</text>
<text x="667.3" y="338.0" class="cat" text-anchor="end" transform="rotate(-35 667.3 338.0)">float</text>
<rect x="743.3" y="241.1" width="65.2" height="82.9" fill="#b07aa1"/>
<text x="775.9" y="237.1" class="val" text-anchor="middle">1.6µs</text>
<text x="775.9" y="338.0" class="cat" text-anchor="end" transform="rotate(-35 775.9 338.0)">globals</text>
<rect x="851.9" y="105.3" width="65.2" height="218.7" fill="#ff9da7"/>
<text x="884.5" y="101.3" class="val" text-anchor="middle">147.7µs</text>
<text x="884.5" y="338.0" class="cat" text-anchor="end" transform="rotate(-35 884.5 338.0)">many_funcs</text>
<rect x="960.5" y="228.2" width="65.2" height="95.8" fill="#9c755f"/>
<text x="993.1" y="224.2" class="val" text-anchor="middle">2.4µs</text>
<text x="993.1" y="338.0" class="cat" text-anchor="end" transform="rotate(-35 993.1 338.0)">memory</text>
<rect x="1069.1" y="256.9" width="65.2" height="67.1" fill="#bab0ac"/>
<text x="1101.7" y="252.9" class="val" text-anchor="middle">940ns</text>
<text x="1101.7" y="338.0" class="cat" text-anchor="end" transform="rotate(-35 1101.7 338.0)">tiny</text>
<line x1="70" y1="324.0" x2="1156" y2="324.0" class="axis"/>
</svg>