<svg width="1180" height="420" viewBox="0 0 1180 420" xmlns="http://www.w3.org/2000/svg" font-family="ui-sans-serif,system-ui,sans-serif">
<style>.val{font-size:10px;fill:#444}.bval{font-size:8px;fill:#555}.cat{font-size:11px;fill:#333}.leg{font-size:11px;fill:#333}.ax{font-size:10px;fill:#888}.grid{stroke:#eee}.axis{stroke:#bbb}</style>
<rect width="1180" height="420" fill="#fff"/>
<text x="70" y="26" font-size="15" font-weight="600" fill="#222">wago Exec — ns/op by module (log scale, lower is faster)</text>
<line x1="70" y1="324.0" x2="1156" y2="324.0" class="grid"/>
<text x="64" y="327.0" class="ax" text-anchor="end">10ns</text>
<line x1="70" y1="278.0" x2="1156" y2="278.0" class="grid"/>
<text x="64" y="281.0" class="ax" text-anchor="end">100ns</text>
<line x1="70" y1="232.0" x2="1156" y2="232.0" class="grid"/>
<text x="64" y="235.0" class="ax" text-anchor="end">1µs</text>
<line x1="70" y1="186.0" x2="1156" y2="186.0" class="grid"/>
<text x="64" y="189.0" class="ax" text-anchor="end">10µs</text>
<line x1="70" y1="140.0" x2="1156" y2="140.0" class="grid"/>
<text x="64" y="143.0" class="ax" text-anchor="end">100µs</text>
<line x1="70" y1="94.0" x2="1156" y2="94.0" class="grid"/>
<text x="64" y="97.0" class="ax" text-anchor="end">1ms</text>
<line x1="70" y1="48.0" x2="1156" y2="48.0" class="grid"/>
<text x="64" y="51.0" class="ax" text-anchor="end">10ms</text>
<rect x="91.7" y="224.0" width="65.2" height="100.0" fill="#4e79a7"/>
<text x="124.3" y="220.0" class="val" text-anchor="middle">1.5µs</text>
<text x="124.3" y="338.0" class="cat" text-anchor="end" transform="rotate(-35 124.3 338.0)">arith.run</text>
<rect x="200.3" y="307.1" width="65.2" height="16.9" fill="#f28e2b"/>
<text x="232.9" y="303.1" class="val" text-anchor="middle">23.4ns</text>
<text x="232.9" y="338.0" class="cat" text-anchor="end" transform="rotate(-35 232.9 338.0)">branches.classify</text>
<rect x="308.9" y="298.4" width="65.2" height="25.6" fill="#59a14f"/>
<text x="341.5" y="294.4" class="val" text-anchor="middle">36.1ns</text>
<text x="341.5" y="338.0" class="cat" text-anchor="end" transform="rotate(-35 341.5 338.0)">dispatch.apply</text>
<rect x="417.5" y="298.4" width="65.2" height="25.6" fill="#e15759"/>
<text x="450.1" y="294.4" class="val" text-anchor="middle">36.1ns</text>
<text x="450.1" y="338.0" class="cat" text-anchor="end" transform="rotate(-35 450.1 338.0)">fib_iter.fib</text>
<rect x="526.1" y="71.8" width="65.2" height="252.2" fill="#76b7b2"/>
<text x="558.7" y="67.8" class="val" text-anchor="middle">3ms</text>
<text x="558.7" y="338.0" class="cat" text-anchor="end" transform="rotate(-35 558.7 338.0)">fib_rec.fib</text>
<rect x="634.7" y="194.6" width="65.2" height="129.4" fill="#edc948"/>
<text x="667.3" y="190.6" class="val" text-anchor="middle">6.5µs</text>
<text x="667.3" y="338.0" class="cat" text-anchor="end" transform="rotate(-35 667.3 338.0)">float.run</text>
<rect x="743.3" y="220.4" width="65.2" height="103.6" fill="#b07aa1"/>
<text x="775.9" y="216.4" class="val" text-anchor="middle">1.8µs</text>
<text x="775.9" y="338.0" class="cat" text-anchor="end" transform="rotate(-35 775.9 338.0)">globals.accumulate</text>
<rect x="851.9" y="300.3" width="65.2" height="23.7" fill="#ff9da7"/>
<text x="884.5" y="296.3" class="val" text-anchor="middle">32.8ns</text>
<text x="884.5" y="338.0" class="cat" text-anchor="end" transform="rotate(-35 884.5 338.0)">many_funcs.run</text>
<rect x="960.5" y="247.2" width="65.2" height="76.8" fill="#9c755f"/>
<text x="993.1" y="243.2" class="val" text-anchor="middle">466.8ns</text>
<text x="993.1" y="338.0" class="cat" text-anchor="end" transform="rotate(-35 993.1 338.0)">memory.sum</text>
<rect x="1069.1" y="304.8" width="65.2" height="19.2" fill="#bab0ac"/>
<text x="1101.7" y="300.8" class="val" text-anchor="middle">26.1ns</text>
<text x="1101.7" y="338.0" class="cat" text-anchor="end" transform="rotate(-35 1101.7 338.0)">tiny.add</text>
<line x1="70" y1="324.0" x2="1156" y2="324.0" class="axis"/>
</svg>