<svg width="1180" height="420" viewBox="0 0 1180 420" xmlns="http://www.w3.org/2000/svg" font-family="ui-sans-serif,system-ui,sans-serif">
<style>.val{font-size:10px;fill:#444}.bval{font-size:8px;fill:#555}.cat{font-size:11px;fill:#333}.leg{font-size:11px;fill:#333}.ax{font-size:10px;fill:#888}.grid{stroke:#eee}.axis{stroke:#bbb}</style>
<rect width="1180" height="420" fill="#fff"/>
<text x="70" y="26" font-size="15" font-weight="600" fill="#222">wago Decode — ns/op by module (log scale, lower is faster)</text>
<line x1="70" y1="324.0" x2="1156" y2="324.0" class="grid"/>
<text x="64" y="327.0" class="ax" text-anchor="end">1µs</text>
<line x1="70" y1="186.0" x2="1156" y2="186.0" class="grid"/>
<text x="64" y="189.0" class="ax" text-anchor="end">10µs</text>
<line x1="70" y1="48.0" x2="1156" y2="48.0" class="grid"/>
<text x="64" y="51.0" class="ax" text-anchor="end">100µs</text>
<rect x="91.7" y="285.2" width="65.2" height="38.8" fill="#4e79a7"/>
<text x="124.3" y="281.2" class="val" text-anchor="middle">1.9µs</text>
<text x="124.3" y="338.0" class="cat" text-anchor="end" transform="rotate(-35 124.3 338.0)">arith</text>
<rect x="200.3" y="295.8" width="65.2" height="28.2" fill="#f28e2b"/>
<text x="232.9" y="291.8" class="val" text-anchor="middle">1.6µs</text>
<text x="232.9" y="338.0" class="cat" text-anchor="end" transform="rotate(-35 232.9 338.0)">branches</text>
<rect x="308.9" y="275.7" width="65.2" height="48.3" fill="#59a14f"/>
<text x="341.5" y="271.7" class="val" text-anchor="middle">2.2µs</text>
<text x="341.5" y="338.0" class="cat" text-anchor="end" transform="rotate(-35 341.5 338.0)">dispatch</text>
<rect x="417.5" y="291.8" width="65.2" height="32.2" fill="#e15759"/>
<text x="450.1" y="287.8" class="val" text-anchor="middle">1.7µs</text>
<text x="450.1" y="338.0" class="cat" text-anchor="end" transform="rotate(-35 450.1 338.0)">fib_iter</text>
<rect x="526.1" y="302.2" width="65.2" height="21.8" fill="#76b7b2"/>
<text x="558.7" y="298.2" class="val" text-anchor="middle">1.4µs</text>
<text x="558.7" y="338.0" class="cat" text-anchor="end" transform="rotate(-35 558.7 338.0)">fib_rec</text>
<rect x="634.7" y="297.3" width="65.2" height="26.7" fill="#edc948"/>
<text x="667.3" y="293.3" class="val" text-anchor="middle">1.6µs</text>
<text x="667.3" y="338.0" class="cat" text-anchor="end" transform="rotate(-35 667.3 338.0)">float</text>
<rect x="743.3" y="285.7" width="65.2" height="38.3" fill="#b07aa1"/>
<text x="775.9" y="281.7" class="val" text-anchor="middle">1.9µs</text>
<text x="775.9" y="338.0" class="cat" text-anchor="end" transform="rotate(-35 775.9 338.0)">globals</text>
<rect x="851.9" y="77.7" width="65.2" height="246.3" fill="#ff9da7"/>
<text x="884.5" y="73.7" class="val" text-anchor="middle">60.9µs</text>
<text x="884.5" y="338.0" class="cat" text-anchor="end" transform="rotate(-35 884.5 338.0)">many_funcs</text>
<rect x="960.5" y="258.5" width="65.2" height="65.5" fill="#9c755f"/>
<text x="993.1" y="254.5" class="val" text-anchor="middle">3µs</text>
<text x="993.1" y="338.0" class="cat" text-anchor="end" transform="rotate(-35 993.1 338.0)">memory</text>
<rect x="1069.1" y="321.3" width="65.2" height="2.7" fill="#bab0ac"/>
<text x="1101.7" y="317.3" class="val" text-anchor="middle">1µs</text>
<text x="1101.7" y="338.0" class="cat" text-anchor="end" transform="rotate(-35 1101.7 338.0)">tiny</text>
<line x1="70" y1="324.0" x2="1156" y2="324.0" class="axis"/>
</svg>