<svg width="1180" height="420" viewBox="0 0 1180 420" xmlns="http://www.w3.org/2000/svg" font-family="ui-sans-serif,system-ui,sans-serif">
<style>.val{font-size:10px;fill:#444}.bval{font-size:8px;fill:#555}.cat{font-size:11px;fill:#333}.leg{font-size:11px;fill:#333}.ax{font-size:10px;fill:#888}.grid{stroke:#eee}.axis{stroke:#bbb}</style>
<rect width="1180" height="420" fill="#fff"/>
<text x="70" y="26" font-size="15" font-weight="600" fill="#222">wago Decode — ns/op by module (log scale, lower is faster)</text>
<line x1="70" y1="324.0" x2="1156" y2="324.0" class="grid"/>
<text x="64" y="327.0" class="ax" text-anchor="end">100ns</text>
<line x1="70" y1="284.6" x2="1156" y2="284.6" class="grid"/>
<text x="64" y="287.6" class="ax" text-anchor="end">1µs</text>
<line x1="70" y1="245.1" x2="1156" y2="245.1" class="grid"/>
<text x="64" y="248.1" class="ax" text-anchor="end">10µs</text>
<line x1="70" y1="205.7" x2="1156" y2="205.7" class="grid"/>
<text x="64" y="208.7" class="ax" text-anchor="end">100µs</text>
<line x1="70" y1="166.3" x2="1156" y2="166.3" class="grid"/>
<text x="64" y="169.3" class="ax" text-anchor="end">1ms</text>
<line x1="70" y1="126.9" x2="1156" y2="126.9" class="grid"/>
<text x="64" y="129.9" class="ax" text-anchor="end">10ms</text>
<line x1="70" y1="87.4" x2="1156" y2="87.4" class="grid"/>
<text x="64" y="90.4" class="ax" text-anchor="end">100ms</text>
<line x1="70" y1="48.0" x2="1156" y2="48.0" class="grid"/>
<text x="64" y="51.0" class="ax" text-anchor="end">1s</text>
<rect x="80.9" y="275.9" width="32.6" height="48.1" fill="#4e79a7"/>
<text x="97.2" y="271.9" class="val" text-anchor="middle">1.7µs</text>
<text x="97.2" y="338.0" class="cat" text-anchor="end" transform="rotate(-35 97.2 338.0)">arith</text>
<rect x="135.2" y="171.0" width="32.6" height="153.0" fill="#f28e2b"/>
<text x="151.4" y="167.0" class="val" text-anchor="middle">757.2µs</text>
<text x="151.4" y="338.0" class="cat" text-anchor="end" transform="rotate(-35 151.4 338.0)">big_func</text>
<rect x="189.5" y="278.6" width="32.6" height="45.4" fill="#59a14f"/>
<text x="205.7" y="274.6" class="val" text-anchor="middle">1.4µs</text>
<text x="205.7" y="338.0" class="cat" text-anchor="end" transform="rotate(-35 205.7 338.0)">branches</text>
<rect x="243.8" y="272.6" width="32.6" height="51.4" fill="#e15759"/>
<text x="260.1" y="268.6" class="val" text-anchor="middle">2µs</text>
<text x="260.1" y="338.0" class="cat" text-anchor="end" transform="rotate(-35 260.1 338.0)">dispatch</text>
<rect x="298.1" y="277.5" width="32.6" height="46.5" fill="#76b7b2"/>
<text x="314.4" y="273.5" class="val" text-anchor="middle">1.5µs</text>
<text x="314.4" y="338.0" class="cat" text-anchor="end" transform="rotate(-35 314.4 338.0)">fib_iter</text>
<rect x="352.4" y="280.6" width="32.6" height="43.4" fill="#edc948"/>
<text x="368.7" y="276.6" class="val" text-anchor="middle">1.3µs</text>
<text x="368.7" y="338.0" class="cat" text-anchor="end" transform="rotate(-35 368.7 338.0)">fib_rec</text>
<rect x="406.7" y="278.7" width="32.6" height="45.3" fill="#b07aa1"/>
<text x="422.9" y="274.7" class="val" text-anchor="middle">1.4µs</text>
<text x="422.9" y="338.0" class="cat" text-anchor="end" transform="rotate(-35 422.9 338.0)">float</text>
<rect x="461.0" y="234.3" width="32.6" height="89.7" fill="#ff9da7"/>
<text x="477.2" y="230.3" class="val" text-anchor="middle">18.8µs</text>
<text x="477.2" y="338.0" class="cat" text-anchor="end" transform="rotate(-35 477.2 338.0)">geo</text>
<rect x="515.3" y="275.8" width="32.6" height="48.2" fill="#9c755f"/>
<text x="531.5" y="271.8" class="val" text-anchor="middle">1.7µs</text>
<text x="531.5" y="338.0" class="cat" text-anchor="end" transform="rotate(-35 531.5 338.0)">globals</text>
<rect x="569.6" y="252.5" width="32.6" height="71.5" fill="#bab0ac"/>
<text x="585.9" y="248.5" class="val" text-anchor="middle">6.5µs</text>
<text x="585.9" y="338.0" class="cat" text-anchor="end" transform="rotate(-35 585.9 338.0)">hash</text>
<rect x="623.9" y="252.6" width="32.6" height="71.4" fill="#1b9e77"/>
<text x="640.1" y="248.6" class="val" text-anchor="middle">6.5µs</text>
<text x="640.1" y="338.0" class="cat" text-anchor="end" transform="rotate(-35 640.1 338.0)">mandel</text>
<rect x="678.2" y="216.9" width="32.6" height="107.1" fill="#d95f02"/>
<text x="694.4" y="212.9" class="val" text-anchor="middle">52µs</text>
<text x="694.4" y="338.0" class="cat" text-anchor="end" transform="rotate(-35 694.4 338.0)">many_funcs</text>
<rect x="732.5" y="268.7" width="32.6" height="55.3" fill="#4e79a7"/>
<text x="748.7" y="264.7" class="val" text-anchor="middle">2.5µs</text>
<text x="748.7" y="338.0" class="cat" text-anchor="end" transform="rotate(-35 748.7 338.0)">memory</text>
<rect x="786.8" y="125.2" width="32.6" height="198.8" fill="#f28e2b"/>
<text x="803.0" y="121.2" class="val" text-anchor="middle">11ms</text>
<text x="803.0" y="338.0" class="cat" text-anchor="end" transform="rotate(-35 803.0 338.0)">real_bigstack</text>
<rect x="841.1" y="133.7" width="32.6" height="190.3" fill="#59a14f"/>
<text x="857.3" y="129.7" class="val" text-anchor="middle">6.7ms</text>
<text x="857.3" y="338.0" class="cat" text-anchor="end" transform="rotate(-35 857.3 338.0)">real_dwarf</text>
<rect x="895.4" y="149.0" width="32.6" height="175.0" fill="#e15759"/>
<text x="911.6" y="145.0" class="val" text-anchor="middle">2.7ms</text>
<text x="911.6" y="338.0" class="cat" text-anchor="end" transform="rotate(-35 911.6 338.0)">real_highstack</text>
<rect x="949.7" y="200.2" width="32.6" height="123.8" fill="#76b7b2"/>
<text x="965.9" y="196.2" class="val" text-anchor="middle">137.8µs</text>
<text x="965.9" y="338.0" class="cat" text-anchor="end" transform="rotate(-35 965.9 338.0)">real_medstack</text>
<rect x="1004.0" y="76.6" width="32.6" height="247.4" fill="#edc948"/>
<text x="1020.2" y="72.6" class="val" text-anchor="middle">188.2ms</text>
<text x="1020.2" y="338.0" class="cat" text-anchor="end" transform="rotate(-35 1020.2 338.0)">real_pspdfkit</text>
<rect x="1058.3" y="285.3" width="32.6" height="38.7" fill="#b07aa1"/>
<text x="1074.5" y="281.3" class="val" text-anchor="middle">960.9ns</text>
<text x="1074.5" y="338.0" class="cat" text-anchor="end" transform="rotate(-35 1074.5 338.0)">tiny</text>
<rect x="1112.6" y="147.1" width="32.6" height="176.9" fill="#ff9da7"/>
<text x="1128.8" y="143.1" class="val" text-anchor="middle">3.1ms</text>
<text x="1128.8" y="338.0" class="cat" text-anchor="end" transform="rotate(-35 1128.8 338.0)">wasm3</text>
<line x1="70" y1="324.0" x2="1156" y2="324.0" class="axis"/>
</svg>