<svg width="1180" height="420" viewBox="0 0 1180 420" xmlns="http://www.w3.org/2000/svg" font-family="ui-sans-serif,system-ui,sans-serif">
<style>.val{font-size:10px;fill:#444}.bval{font-size:8px;fill:#555}.cat{font-size:11px;fill:#333}.leg{font-size:11px;fill:#333}.ax{font-size:10px;fill:#888}.grid{stroke:#eee}.axis{stroke:#bbb}</style>
<rect width="1180" height="420" fill="#fff"/>
<text x="70" y="26" font-size="15" font-weight="600" fill="#222">wago Instantiate — ns/op by module (log scale, lower is faster)</text>
<line x1="70" y1="324.0" x2="1156" y2="324.0" class="grid"/>
<text x="64" y="327.0" class="ax" text-anchor="end">10µs</text>
<line x1="70" y1="48.0" x2="1156" y2="48.0" class="grid"/>
<text x="64" y="51.0" class="ax" text-anchor="end">100µs</text>
<rect x="91.7" y="251.5" width="65.2" height="72.5" fill="#4e79a7"/>
<text x="124.3" y="247.5" class="val" text-anchor="middle">18.3µs</text>
<text x="124.3" y="338.0" class="cat" text-anchor="end" transform="rotate(-35 124.3 338.0)">arith</text>
<rect x="200.3" y="251.5" width="65.2" height="72.5" fill="#f28e2b"/>
<text x="232.9" y="247.5" class="val" text-anchor="middle">18.3µs</text>
<text x="232.9" y="338.0" class="cat" text-anchor="end" transform="rotate(-35 232.9 338.0)">branches</text>
<rect x="308.9" y="238.5" width="65.2" height="85.5" fill="#59a14f"/>
<text x="341.5" y="234.5" class="val" text-anchor="middle">20.4µs</text>
<text x="341.5" y="338.0" class="cat" text-anchor="end" transform="rotate(-35 341.5 338.0)">dispatch</text>
<rect x="417.5" y="251.1" width="65.2" height="72.9" fill="#e15759"/>
<text x="450.1" y="247.1" class="val" text-anchor="middle">18.4µs</text>
<text x="450.1" y="338.0" class="cat" text-anchor="end" transform="rotate(-35 450.1 338.0)">fib_iter</text>
<rect x="526.1" y="250.9" width="65.2" height="73.1" fill="#76b7b2"/>
<text x="558.7" y="246.9" class="val" text-anchor="middle">18.4µs</text>
<text x="558.7" y="338.0" class="cat" text-anchor="end" transform="rotate(-35 558.7 338.0)">fib_rec</text>
<rect x="634.7" y="252.8" width="65.2" height="71.2" fill="#edc948"/>
<text x="667.3" y="248.8" class="val" text-anchor="middle">18.1µs</text>
<text x="667.3" y="338.0" class="cat" text-anchor="end" transform="rotate(-35 667.3 338.0)">float</text>
<rect x="743.3" y="237.2" width="65.2" height="86.8" fill="#b07aa1"/>
<text x="775.9" y="233.2" class="val" text-anchor="middle">20.6µs</text>
<text x="775.9" y="338.0" class="cat" text-anchor="end" transform="rotate(-35 775.9 338.0)">globals</text>
<rect x="851.9" y="184.6" width="65.2" height="139.4" fill="#ff9da7"/>
<text x="884.5" y="180.6" class="val" text-anchor="middle">32µs</text>
<text x="884.5" y="338.0" class="cat" text-anchor="end" transform="rotate(-35 884.5 338.0)">many_funcs</text>
<rect x="960.5" y="252.5" width="65.2" height="71.5" fill="#9c755f"/>
<text x="993.1" y="248.5" class="val" text-anchor="middle">18.2µs</text>
<text x="993.1" y="338.0" class="cat" text-anchor="end" transform="rotate(-35 993.1 338.0)">memory</text>
<rect x="1069.1" y="250.4" width="65.2" height="73.6" fill="#bab0ac"/>
<text x="1101.7" y="246.4" class="val" text-anchor="middle">18.5µs</text>
<text x="1101.7" y="338.0" class="cat" text-anchor="end" transform="rotate(-35 1101.7 338.0)">tiny</text>
<line x1="70" y1="324.0" x2="1156" y2="324.0" class="axis"/>
</svg>