<svg width="1180" height="510" viewBox="0 0 1180 510" xmlns="http://www.w3.org/2000/svg" font-family="ui-sans-serif,system-ui,sans-serif">
<style>.val{font-size:10px;fill:#444}.bval{font-size:8px;fill:#555}.cat{font-size:11px;fill:#333}.leg{font-size:11px;fill:#333}.ax{font-size:10px;fill:#888}.grid{stroke:#eee}.axis{stroke:#bbb}</style>
<rect width="1180" height="510" fill="#fff"/>
<text x="70" y="26" font-size="15" font-weight="600" fill="#222">real-world corpus — pipeline cost by module (ns/op, log scale)</text>
<rect x="70.0" y="34" width="10" height="10" fill="#4e79a7"/>
<text x="84.0" y="43.0" class="leg" text-anchor="start">Decode</text>
<rect x="136.0" y="34" width="10" height="10" fill="#f28e2b"/>
<text x="150.0" y="43.0" class="leg" text-anchor="start">Validate</text>
<rect x="216.0" y="34" width="10" height="10" fill="#59a14f"/>
<text x="230.0" y="43.0" class="leg" text-anchor="start">Compile</text>
<rect x="289.0" y="34" width="10" height="10" fill="#e15759"/>
<text x="303.0" y="43.0" class="leg" text-anchor="start">CompileFull</text>
<rect x="390.0" y="34" width="10" height="10" fill="#76b7b2"/>
<text x="404.0" y="43.0" class="leg" text-anchor="start">Instantiate</text>
<line x1="70" y1="414.0" x2="1156" y2="414.0" class="grid"/>
<text x="64" y="417.0" class="ax" text-anchor="end">1µs</text>
<line x1="70" y1="362.7" x2="1156" y2="362.7" class="grid"/>
<text x="64" y="365.7" class="ax" text-anchor="end">10µs</text>
<line x1="70" y1="311.3" x2="1156" y2="311.3" class="grid"/>
<text x="64" y="314.3" class="ax" text-anchor="end">100µs</text>
<line x1="70" y1="260.0" x2="1156" y2="260.0" class="grid"/>
<text x="64" y="263.0" class="ax" text-anchor="end">1ms</text>
<line x1="70" y1="208.7" x2="1156" y2="208.7" class="grid"/>
<text x="64" y="211.7" class="ax" text-anchor="end">10ms</text>
<line x1="70" y1="157.3" x2="1156" y2="157.3" class="grid"/>
<text x="64" y="160.3" class="ax" text-anchor="end">100ms</text>
<line x1="70" y1="106.0" x2="1156" y2="106.0" class="grid"/>
<text x="64" y="109.0" class="ax" text-anchor="end">1s</text>
<rect x="82.1" y="372.4" width="17.4" height="41.6" fill="#4e79a7"/>
<text x="90.8" y="369.4" class="bval" text-anchor="start" transform="rotate(-90 90.8 369.4)">6.5µs</text>
<rect x="101.4" y="365.2" width="17.4" height="48.8" fill="#f28e2b"/>
<text x="110.1" y="362.2" class="bval" text-anchor="start" transform="rotate(-90 110.1 362.2)">8.9µs</text>
<rect x="120.7" y="379.5" width="17.4" height="34.5" fill="#59a14f"/>
<text x="129.4" y="376.5" class="bval" text-anchor="start" transform="rotate(-90 129.4 376.5)">4.7µs</text>
<rect x="140.0" y="333.1" width="17.4" height="80.9" fill="#e15759"/>
<text x="148.7" y="330.1" class="bval" text-anchor="start" transform="rotate(-90 148.7 330.1)">37.6µs</text>
<rect x="159.3" y="346.4" width="17.4" height="67.6" fill="#76b7b2"/>
<text x="168.0" y="343.4" class="bval" text-anchor="start" transform="rotate(-90 168.0 343.4)">20.7µs</text>
<text x="130.3" y="428.0" class="cat" text-anchor="end" transform="rotate(-35 130.3 428.0)">mandel (712B)</text>
<rect x="202.7" y="372.2" width="17.4" height="41.8" fill="#4e79a7"/>
<text x="211.4" y="369.2" class="bval" text-anchor="start" transform="rotate(-90 211.4 369.2)">6.5µs</text>
<rect x="222.0" y="364.5" width="17.4" height="49.5" fill="#f28e2b"/>
<text x="230.7" y="361.5" class="bval" text-anchor="start" transform="rotate(-90 230.7 361.5)">9.2µs</text>
<rect x="241.3" y="382.1" width="17.4" height="31.9" fill="#59a14f"/>
<text x="250.0" y="379.1" class="bval" text-anchor="start" transform="rotate(-90 250.0 379.1)">4.2µs</text>
<rect x="260.7" y="333.8" width="17.4" height="80.2" fill="#e15759"/>
<text x="269.3" y="330.8" class="bval" text-anchor="start" transform="rotate(-90 269.3 330.8)">36.5µs</text>
<rect x="280.0" y="346.4" width="17.4" height="67.6" fill="#76b7b2"/>
<text x="288.6" y="343.4" class="bval" text-anchor="start" transform="rotate(-90 288.6 343.4)">20.7µs</text>
<text x="251.0" y="428.0" class="cat" text-anchor="end" transform="rotate(-35 251.0 428.0)">hash (795B)</text>
<rect x="323.4" y="348.6" width="17.4" height="65.4" fill="#4e79a7"/>
<text x="332.1" y="345.6" class="bval" text-anchor="start" transform="rotate(-90 332.1 345.6)">18.8µs</text>
<rect x="342.7" y="337.8" width="17.4" height="76.2" fill="#f28e2b"/>
<text x="351.4" y="334.8" class="bval" text-anchor="start" transform="rotate(-90 351.4 334.8)">30.6µs</text>
<rect x="362.0" y="346.8" width="17.4" height="67.2" fill="#59a14f"/>
<text x="370.7" y="343.8" class="bval" text-anchor="start" transform="rotate(-90 370.7 343.8)">20.4µs</text>
<rect x="381.3" y="306.4" width="17.4" height="107.6" fill="#e15759"/>
<text x="390.0" y="303.4" class="bval" text-anchor="start" transform="rotate(-90 390.0 303.4)">124.8µs</text>
<rect x="400.6" y="344.9" width="17.4" height="69.1" fill="#76b7b2"/>
<text x="409.3" y="341.9" class="bval" text-anchor="start" transform="rotate(-90 409.3 341.9)">22.2µs</text>
<text x="371.7" y="428.0" class="cat" text-anchor="end" transform="rotate(-35 371.7 428.0)">geo (1.6KB)</text>
<rect x="444.1" y="304.2" width="17.4" height="109.8" fill="#4e79a7"/>
<text x="452.8" y="301.2" class="bval" text-anchor="start" transform="rotate(-90 452.8 301.2)">137.8µs</text>
<rect x="463.4" y="287.7" width="17.4" height="126.3" fill="#f28e2b"/>
<text x="472.1" y="284.7" class="bval" text-anchor="start" transform="rotate(-90 472.1 284.7)">288.1µs</text>
<rect x="482.7" y="311.3" width="17.4" height="102.7" fill="#59a14f"/>
<text x="491.4" y="308.3" class="bval" text-anchor="start" transform="rotate(-90 491.4 308.3)">100µs</text>
<rect x="502.0" y="260.2" width="17.4" height="153.8" fill="#e15759"/>
<text x="510.7" y="257.2" class="bval" text-anchor="start" transform="rotate(-90 510.7 257.2)">990.1µs</text>
<rect x="521.3" y="345.3" width="17.4" height="68.7" fill="#76b7b2"/>
<text x="530.0" y="342.3" class="bval" text-anchor="start" transform="rotate(-90 530.0 342.3)">21.8µs</text>
<text x="492.3" y="428.0" class="cat" text-anchor="end" transform="rotate(-35 492.3 428.0)">real_medstack (7.4KB)</text>
<rect x="564.7" y="237.5" width="17.4" height="176.5" fill="#4e79a7"/>
<text x="573.4" y="234.5" class="bval" text-anchor="start" transform="rotate(-90 573.4 234.5)">2.7ms</text>
<rect x="584.0" y="234.4" width="17.4" height="179.6" fill="#f28e2b"/>
<text x="592.7" y="231.4" class="bval" text-anchor="start" transform="rotate(-90 592.7 231.4)">3.1ms</text>
<rect x="603.3" y="258.6" width="17.4" height="155.4" fill="#59a14f"/>
<text x="612.0" y="255.6" class="bval" text-anchor="start" transform="rotate(-90 612.0 255.6)">1.1ms</text>
<rect x="622.7" y="203.5" width="17.4" height="210.5" fill="#e15759"/>
<text x="631.3" y="200.5" class="bval" text-anchor="start" transform="rotate(-90 631.3 200.5)">12.6ms</text>
<rect x="642.0" y="317.2" width="17.4" height="96.8" fill="#76b7b2"/>
<text x="650.6" y="314.2" class="bval" text-anchor="start" transform="rotate(-90 650.6 314.2)">76.9µs</text>
<text x="613.0" y="428.0" class="cat" text-anchor="end" transform="rotate(-35 613.0 428.0)">real_highstack (80.7KB)</text>
<rect x="685.4" y="235.0" width="17.4" height="179.0" fill="#4e79a7"/>
<text x="694.1" y="232.0" class="bval" text-anchor="start" transform="rotate(-90 694.1 232.0)">3.1ms</text>
<rect x="704.7" y="227.8" width="17.4" height="186.2" fill="#f28e2b"/>
<text x="713.4" y="224.8" class="bval" text-anchor="start" transform="rotate(-90 713.4 224.8)">4.2ms</text>
<text x="733.7" y="428.0" class="cat" text-anchor="end" transform="rotate(-35 733.7 428.0)">wasm3 (179.8KB)</text>
<rect x="806.1" y="206.4" width="17.4" height="207.6" fill="#4e79a7"/>
<text x="814.8" y="203.4" class="bval" text-anchor="start" transform="rotate(-90 814.8 203.4)">11ms</text>
<rect x="825.4" y="211.1" width="17.4" height="202.9" fill="#f28e2b"/>
<text x="834.1" y="208.1" class="bval" text-anchor="start" transform="rotate(-90 834.1 208.1)">9ms</text>
<rect x="844.7" y="235.1" width="17.4" height="178.9" fill="#59a14f"/>
<text x="853.4" y="232.1" class="bval" text-anchor="start" transform="rotate(-90 853.4 232.1)">3.1ms</text>
<rect x="864.0" y="177.6" width="17.4" height="236.4" fill="#e15759"/>
<text x="872.7" y="174.6" class="bval" text-anchor="start" transform="rotate(-90 872.7 174.6)">40.4ms</text>
<rect x="883.3" y="297.2" width="17.4" height="116.8" fill="#76b7b2"/>
<text x="892.0" y="294.2" class="bval" text-anchor="start" transform="rotate(-90 892.0 294.2)">188.7µs</text>
<text x="854.3" y="428.0" class="cat" text-anchor="end" transform="rotate(-35 854.3 428.0)">real_bigstack (229.6KB)</text>
<rect x="926.7" y="217.5" width="17.4" height="196.5" fill="#4e79a7"/>
<text x="935.4" y="214.5" class="bval" text-anchor="start" transform="rotate(-90 935.4 214.5)">6.7ms</text>
<rect x="946.0" y="217.7" width="17.4" height="196.3" fill="#f28e2b"/>
<text x="954.7" y="214.7" class="bval" text-anchor="start" transform="rotate(-90 954.7 214.7)">6.7ms</text>
<text x="975.0" y="428.0" class="cat" text-anchor="end" transform="rotate(-35 975.0 428.0)">real_dwarf (418.9KB)</text>
<rect x="1047.4" y="143.2" width="17.4" height="270.8" fill="#4e79a7"/>
<text x="1056.1" y="140.2" class="bval" text-anchor="start" transform="rotate(-90 1056.1 140.2)">188.2ms</text>
<rect x="1066.7" y="111.2" width="17.4" height="302.8" fill="#f28e2b"/>
<text x="1075.4" y="108.2" class="bval" text-anchor="start" transform="rotate(-90 1075.4 108.2)">791.1ms</text>
<text x="1095.7" y="428.0" class="cat" text-anchor="end" transform="rotate(-35 1095.7 428.0)">real_pspdfkit (8.7MB)</text>
<line x1="70" y1="414.0" x2="1156" y2="414.0" class="axis"/>
</svg>