<svg width="900" height="470" viewBox="0 0 900 470" xmlns="http://www.w3.org/2000/svg" font-family="ui-sans-serif,system-ui,sans-serif">
<style>.val{font-size:10px;fill:#444}.cat{font-size:11px;fill:#333}.leg{font-size:11px;fill:#333}.ax{font-size:10px;fill:#888}.grid{stroke:#eee}.axis{stroke:#bbb}</style>
<rect width="900" height="470" fill="#fff"/>
<text x="70" y="26" font-size="15" font-weight="600" fill="#222">real-world corpus — pipeline cost by module (ns/op, log scale)</text>
<rect x="70.0" y="34" width="10" height="10" fill="#4e79a7"/>
<text x="84.0" y="43.0" class="leg" text-anchor="start">Decode</text>
<rect x="136.0" y="34" width="10" height="10" fill="#f28e2b"/>
<text x="150.0" y="43.0" class="leg" text-anchor="start">Validate</text>
<rect x="216.0" y="34" width="10" height="10" fill="#59a14f"/>
<text x="230.0" y="43.0" class="leg" text-anchor="start">Compile</text>
<rect x="289.0" y="34" width="10" height="10" fill="#e15759"/>
<text x="303.0" y="43.0" class="leg" text-anchor="start">CompileFull</text>
<rect x="390.0" y="34" width="10" height="10" fill="#76b7b2"/>
<text x="404.0" y="43.0" class="leg" text-anchor="start">Instantiate</text>
<line x1="70" y1="374.0" x2="876" y2="374.0" class="grid"/>
<text x="64" y="377.0" class="ax" text-anchor="end">1µs</text>
<line x1="70" y1="323.0" x2="876" y2="323.0" class="grid"/>
<text x="64" y="326.0" class="ax" text-anchor="end">10µs</text>
<line x1="70" y1="272.0" x2="876" y2="272.0" class="grid"/>
<text x="64" y="275.0" class="ax" text-anchor="end">100µs</text>
<line x1="70" y1="221.0" x2="876" y2="221.0" class="grid"/>
<text x="64" y="224.0" class="ax" text-anchor="end">1ms</text>
<line x1="70" y1="170.0" x2="876" y2="170.0" class="grid"/>
<text x="64" y="173.0" class="ax" text-anchor="end">10ms</text>
<line x1="70" y1="119.0" x2="876" y2="119.0" class="grid"/>
<text x="64" y="122.0" class="ax" text-anchor="end">100ms</text>
<line x1="70" y1="68.0" x2="876" y2="68.0" class="grid"/>
<text x="64" y="71.0" class="ax" text-anchor="end">1s</text>
<rect x="79.0" y="332.7" width="12.9" height="41.3" fill="#4e79a7"/>
<rect x="93.3" y="325.5" width="12.9" height="48.5" fill="#f28e2b"/>
<rect x="107.6" y="339.7" width="12.9" height="34.3" fill="#59a14f"/>
<rect x="121.9" y="293.6" width="12.9" height="80.4" fill="#e15759"/>
<rect x="136.3" y="306.8" width="12.9" height="67.2" fill="#76b7b2"/>
<text x="114.8" y="388.0" class="cat" text-anchor="end" transform="rotate(-35 114.8 388.0)">mandel (712B)</text>
<rect x="168.5" y="332.5" width="12.9" height="41.5" fill="#4e79a7"/>
<rect x="182.8" y="324.8" width="12.9" height="49.2" fill="#f28e2b"/>
<rect x="197.2" y="342.3" width="12.9" height="31.7" fill="#59a14f"/>
<rect x="211.5" y="294.3" width="12.9" height="79.7" fill="#e15759"/>
<rect x="225.8" y="306.8" width="12.9" height="67.2" fill="#76b7b2"/>
<text x="204.3" y="388.0" class="cat" text-anchor="end" transform="rotate(-35 204.3 388.0)">hash (795B)</text>
<rect x="258.1" y="309.0" width="12.9" height="65.0" fill="#4e79a7"/>
<rect x="272.4" y="298.3" width="12.9" height="75.7" fill="#f28e2b"/>
<rect x="286.7" y="307.2" width="12.9" height="66.8" fill="#59a14f"/>
<rect x="301.1" y="267.1" width="12.9" height="106.9" fill="#e15759"/>
<rect x="315.4" y="305.3" width="12.9" height="68.7" fill="#76b7b2"/>
<text x="293.9" y="388.0" class="cat" text-anchor="end" transform="rotate(-35 293.9 388.0)">geo (1.6KB)</text>
<rect x="347.6" y="264.9" width="12.9" height="109.1" fill="#4e79a7"/>
<rect x="362.0" y="248.6" width="12.9" height="125.4" fill="#f28e2b"/>
<rect x="376.3" y="272.0" width="12.9" height="102.0" fill="#59a14f"/>
<rect x="390.6" y="221.2" width="12.9" height="152.8" fill="#e15759"/>
<rect x="404.9" y="305.7" width="12.9" height="68.3" fill="#76b7b2"/>
<text x="383.4" y="388.0" class="cat" text-anchor="end" transform="rotate(-35 383.4 388.0)">real_medstack (7.4KB)</text>
<rect x="437.2" y="198.7" width="12.9" height="175.3" fill="#4e79a7"/>
<rect x="451.5" y="195.6" width="12.9" height="178.4" fill="#f28e2b"/>
<rect x="465.8" y="219.6" width="12.9" height="154.4" fill="#59a14f"/>
<rect x="480.2" y="164.9" width="12.9" height="209.1" fill="#e15759"/>
<rect x="494.5" y="277.8" width="12.9" height="96.2" fill="#76b7b2"/>
<text x="473.0" y="388.0" class="cat" text-anchor="end" transform="rotate(-35 473.0 388.0)">real_highstack (80.7KB)</text>
<rect x="526.7" y="196.2" width="12.9" height="177.8" fill="#4e79a7"/>
<rect x="541.1" y="189.1" width="12.9" height="184.9" fill="#f28e2b"/>
<text x="562.6" y="388.0" class="cat" text-anchor="end" transform="rotate(-35 562.6 388.0)">wasm3 (179.8KB)</text>
<rect x="616.3" y="167.8" width="12.9" height="206.2" fill="#4e79a7"/>
<rect x="630.6" y="172.4" width="12.9" height="201.6" fill="#f28e2b"/>
<rect x="644.9" y="196.3" width="12.9" height="177.7" fill="#59a14f"/>
<rect x="659.3" y="139.1" width="12.9" height="234.9" fill="#e15759"/>
<rect x="673.6" y="257.9" width="12.9" height="116.1" fill="#76b7b2"/>
<text x="652.1" y="388.0" class="cat" text-anchor="end" transform="rotate(-35 652.1 388.0)">real_bigstack (229.6KB)</text>
<rect x="705.8" y="178.8" width="12.9" height="195.2" fill="#4e79a7"/>
<rect x="720.2" y="179.0" width="12.9" height="195.0" fill="#f28e2b"/>
<text x="741.7" y="388.0" class="cat" text-anchor="end" transform="rotate(-35 741.7 388.0)">real_dwarf (418.9KB)</text>
<rect x="795.4" y="105.0" width="12.9" height="269.0" fill="#4e79a7"/>
<rect x="809.7" y="73.2" width="12.9" height="300.8" fill="#f28e2b"/>
<text x="831.2" y="388.0" class="cat" text-anchor="end" transform="rotate(-35 831.2 388.0)">real_pspdfkit (8.7MB)</text>
<line x1="70" y1="374.0" x2="876" y2="374.0" class="axis"/>
</svg>